<svg xmlns="http://www.w3.org/2000/svg" xmlns:xlink="http://www.w3.org/1999/xlink" width="500" zoomAndPan="magnify" viewBox="0 0 375 374.999991" height="500" preserveAspectRatio="xMidYMid meet" version="1.0"><defs><filter x="0%" y="0%" width="100%" xlink:type="simple" xlink:actuate="onLoad" height="100%" id="id1" xlink:show="other"><feColorMatrix values="0 0 0 0 1 0 0 0 0 1 0 0 0 0 1 0 0 0 1 0" color-interpolation-filters="sRGB"/></filter><g/><mask id="id2"><g filter="url(#id1)"><rect x="-37.5" width="450" fill="rgb(0%, 0%, 0%)" y="-37.499999" height="449.999989" fill-opacity="0.298"/></g></mask><clipPath id="id3"><path d="M 203 0.40625 L 214 0.40625 L 214 10 L 203 10 Z M 203 0.40625 " clip-rule="nonzero"/></clipPath><clipPath id="id4"><path d="M 127 70 L 139 70 L 139 79.90625 L 127 79.90625 Z M 127 70 " clip-rule="nonzero"/></clipPath><clipPath id="id5"><rect x="0" width="227" y="0" height="80"/></clipPath><mask id="id6"><g filter="url(#id1)"><rect x="-37.5" width="450" fill="rgb(0%, 0%, 0%)" y="-37.499999" height="449.999989" fill-opacity="0.4784"/></g></mask><clipPath id="id7"><path d="M 0 0.5625 L 219.121094 0.5625 L 219.121094 225.5625 L 0 225.5625 Z M 0 0.5625 " clip-rule="nonzero"/></clipPath><clipPath id="id8"><rect x="0" width="220" y="0" height="226"/></clipPath></defs><g mask="url(#id2)"><g transform="matrix(1, 0, 0, 1, 74, 137)"><g clip-path="url(#id5)"><path fill="rgb(92.549133%, 61.178589%, 56.858826%)" d="M 13.890625 38.210938 C 13.890625 41.21875 12.515625 42.398438 9.019531 42.398438 C 12.515625 42.398438 13.890625 43.582031 13.890625 46.589844 C 13.890625 43.582031 15.261719 42.398438 18.757812 42.398438 C 15.261719 42.398438 13.890625 41.21875 13.890625 38.210938 " fill-opacity="1" fill-rule="nonzero"/><path fill="rgb(92.549133%, 61.178589%, 56.858826%)" d="M 53.117188 13.386719 C 52.988281 16.390625 51.5625 17.507812 48.070312 17.355469 C 51.5625 17.507812 52.882812 18.75 52.753906 21.753906 C 52.882812 18.75 54.308594 17.628906 57.800781 17.785156 C 54.308594 17.628906 52.988281 16.390625 53.117188 13.386719 " fill-opacity="1" fill-rule="nonzero"/><path fill="rgb(92.549133%, 61.178589%, 56.858826%)" d="M 28.507812 29.710938 C 28.507812 32.054688 27.4375 32.976562 24.707031 32.976562 C 27.4375 32.976562 28.507812 33.898438 28.507812 36.246094 C 28.507812 33.898438 29.578125 32.976562 32.308594 32.976562 C 29.578125 32.976562 28.507812 32.054688 28.507812 29.710938 " fill-opacity="1" fill-rule="nonzero"/><path fill="rgb(92.549133%, 61.178589%, 56.858826%)" d="M 29.152344 15.804688 C 29.152344 18.152344 28.078125 19.074219 25.351562 19.074219 C 28.078125 19.074219 29.152344 19.996094 29.152344 22.339844 C 29.152344 19.996094 30.222656 19.074219 32.953125 19.074219 C 30.222656 19.074219 29.152344 18.152344 29.152344 15.804688 " fill-opacity="1" fill-rule="nonzero"/><path fill="rgb(92.549133%, 61.178589%, 56.858826%)" d="M 55.980469 46.113281 C 55.980469 48.457031 54.910156 49.382812 52.179688 49.382812 C 54.910156 49.382812 55.980469 50.300781 55.980469 52.648438 C 55.980469 50.300781 57.050781 49.382812 59.78125 49.382812 C 57.050781 49.382812 55.980469 48.457031 55.980469 46.113281 " fill-opacity="1" fill-rule="nonzero"/><path fill="rgb(92.549133%, 61.178589%, 56.858826%)" d="M 35.25 39.847656 C 34.910156 39.847656 34.632812 40.125 34.632812 40.46875 C 34.632812 40.8125 34.910156 41.089844 35.25 41.089844 C 35.59375 41.089844 35.871094 40.8125 35.871094 40.46875 C 35.871094 40.125 35.59375 39.847656 35.25 39.847656 " fill-opacity="1" fill-rule="nonzero"/><path fill="rgb(92.549133%, 61.178589%, 56.858826%)" d="M 66.671875 16.082031 C 66.328125 16.082031 66.046875 16.363281 66.046875 16.707031 C 66.046875 17.050781 66.328125 17.328125 66.671875 17.328125 C 67.011719 17.328125 67.292969 17.050781 67.292969 16.707031 C 67.292969 16.363281 67.011719 16.082031 66.671875 16.082031 " fill-opacity="1" fill-rule="nonzero"/><path fill="rgb(92.549133%, 61.178589%, 56.858826%)" d="M 15.683594 27.757812 C 15.339844 27.757812 15.0625 28.035156 15.0625 28.378906 C 15.0625 28.722656 15.339844 29 15.683594 29 C 16.027344 29 16.304688 28.722656 16.304688 28.378906 C 16.304688 28.035156 16.027344 27.757812 15.683594 27.757812 " fill-opacity="1" fill-rule="nonzero"/><path fill="rgb(92.549133%, 61.178589%, 56.858826%)" d="M 15.0625 70.050781 C 14.722656 70.050781 14.441406 70.332031 14.441406 70.675781 C 14.441406 71.019531 14.722656 71.296875 15.0625 71.296875 C 15.40625 71.296875 15.683594 71.019531 15.683594 70.675781 C 15.683594 70.332031 15.40625 70.050781 15.0625 70.050781 " fill-opacity="1" fill-rule="nonzero"/><path fill="rgb(92.549133%, 61.178589%, 56.858826%)" d="M 1.625 47.957031 C 1.28125 47.957031 1.003906 48.238281 1.003906 48.582031 C 1.003906 48.925781 1.28125 49.203125 1.625 49.203125 C 1.96875 49.203125 2.246094 48.925781 2.246094 48.582031 C 2.246094 48.238281 1.96875 47.957031 1.625 47.957031 " fill-opacity="1" fill-rule="nonzero"/><path fill="rgb(92.549133%, 61.178589%, 56.858826%)" d="M 2.246094 63.214844 C 1.902344 63.214844 1.625 63.492188 1.625 63.835938 C 1.625 64.179688 1.902344 64.460938 2.246094 64.460938 C 2.589844 64.460938 2.867188 64.179688 2.867188 63.835938 C 2.867188 63.492188 2.589844 63.214844 2.246094 63.214844 " fill-opacity="1" fill-rule="nonzero"/><path fill="rgb(92.549133%, 61.178589%, 56.858826%)" d="M 66.855469 25.929688 C 66.722656 28.933594 65.300781 30.054688 61.804688 29.898438 C 65.300781 30.054688 66.621094 31.292969 66.488281 34.296875 C 66.621094 31.292969 68.042969 30.171875 71.535156 30.328125 C 68.042969 30.171875 66.722656 28.933594 66.855469 25.929688 " fill-opacity="1" fill-rule="nonzero"/><path fill="rgb(92.549133%, 61.178589%, 56.858826%)" d="M 32.496094 46.992188 C 32.496094 49.996094 31.121094 51.179688 27.625 51.179688 C 31.121094 51.179688 32.496094 52.359375 32.496094 55.367188 C 32.496094 52.359375 33.867188 51.179688 37.363281 51.179688 C 33.867188 51.179688 32.496094 49.996094 32.496094 46.992188 " fill-opacity="1" fill-rule="nonzero"/><path fill="rgb(92.549133%, 61.178589%, 56.858826%)" d="M 10.945312 55.363281 C 10.945312 57.183594 10.113281 57.894531 8 57.894531 C 10.113281 57.894531 10.945312 58.609375 10.945312 60.425781 C 10.945312 58.609375 11.777344 57.894531 13.890625 57.894531 C 11.777344 57.894531 10.945312 57.183594 10.945312 55.363281 " fill-opacity="1" fill-rule="nonzero"/><path fill="rgb(92.549133%, 61.178589%, 56.858826%)" d="M 100.207031 72.167969 C 100.207031 73.988281 99.375 74.703125 97.261719 74.703125 C 99.375 74.703125 100.207031 75.414062 100.207031 77.234375 C 100.207031 75.414062 101.039062 74.703125 103.152344 74.703125 C 101.039062 74.703125 100.207031 73.988281 100.207031 72.167969 " fill-opacity="1" fill-rule="nonzero"/><path fill="rgb(92.549133%, 61.178589%, 56.858826%)" d="M 46.800781 29.488281 C 46.457031 29.488281 46.179688 29.769531 46.179688 30.113281 C 46.179688 30.457031 46.457031 30.734375 46.800781 30.734375 C 47.144531 30.734375 47.421875 30.457031 47.421875 30.113281 C 47.421875 29.769531 47.144531 29.488281 46.800781 29.488281 " fill-opacity="1" fill-rule="nonzero"/><path fill="rgb(92.549133%, 61.178589%, 56.858826%)" d="M 21.472656 52.917969 C 21.128906 52.917969 20.851562 53.195312 20.851562 53.539062 C 20.851562 53.882812 21.128906 54.164062 21.472656 54.164062 C 21.8125 54.164062 22.09375 53.882812 22.09375 53.539062 C 22.09375 53.195312 21.8125 52.917969 21.472656 52.917969 " fill-opacity="1" fill-rule="nonzero"/><path fill="rgb(92.549133%, 61.178589%, 56.858826%)" d="M 70.730469 59.914062 C 70.355469 59.914062 70.054688 60.21875 70.054688 60.59375 C 70.054688 60.964844 70.355469 61.265625 70.730469 61.265625 C 71.101562 61.265625 71.402344 60.964844 71.402344 60.59375 C 71.402344 60.21875 71.101562 59.914062 70.730469 59.914062 " fill-opacity="1" fill-rule="nonzero"/><path fill="rgb(92.549133%, 61.178589%, 56.858826%)" d="M 84.488281 33.808594 C 84.488281 35.777344 83.585938 36.554688 81.292969 36.554688 C 83.585938 36.554688 84.488281 37.328125 84.488281 39.300781 C 84.488281 37.328125 85.386719 36.554688 87.679688 36.554688 C 85.386719 36.554688 84.488281 35.777344 84.488281 33.808594 " fill-opacity="1" fill-rule="nonzero"/><path fill="rgb(92.549133%, 61.178589%, 56.858826%)" d="M 115.371094 60.292969 C 115.371094 62.835938 114.207031 63.835938 111.246094 63.835938 C 114.207031 63.835938 115.371094 64.835938 115.371094 67.386719 C 115.371094 64.835938 116.535156 63.835938 119.492188 63.835938 C 116.535156 63.835938 115.371094 62.835938 115.371094 60.292969 " fill-opacity="1" fill-rule="nonzero"/><path fill="rgb(92.549133%, 61.178589%, 56.858826%)" d="M 103.546875 42.964844 C 103.546875 45.023438 102.605469 45.832031 100.207031 45.832031 C 102.605469 45.832031 103.546875 46.644531 103.546875 48.703125 C 103.546875 46.644531 104.488281 45.832031 106.886719 45.832031 C 104.488281 45.832031 103.546875 45.023438 103.546875 42.964844 " fill-opacity="1" fill-rule="nonzero"/><path fill="rgb(92.549133%, 61.178589%, 56.858826%)" d="M 91.324219 59.914062 C 90.953125 59.914062 90.648438 60.21875 90.648438 60.59375 C 90.648438 60.964844 90.953125 61.265625 91.324219 61.265625 C 91.695312 61.265625 92 60.964844 92 60.59375 C 92 60.21875 91.695312 59.914062 91.324219 59.914062 " fill-opacity="1" fill-rule="nonzero"/><path fill="rgb(92.549133%, 61.178589%, 56.858826%)" d="M 148.222656 43.085938 C 148.222656 45.058594 147.320312 45.832031 145.027344 45.832031 C 147.320312 45.832031 148.222656 46.609375 148.222656 48.582031 C 148.222656 46.609375 149.125 45.832031 151.417969 45.832031 C 149.125 45.832031 148.222656 45.058594 148.222656 43.085938 " fill-opacity="1" fill-rule="nonzero"/><path fill="rgb(92.549133%, 61.178589%, 56.858826%)" d="M 124.890625 42.285156 C 124.890625 44.832031 123.726562 45.832031 120.765625 45.832031 C 123.726562 45.832031 124.890625 46.832031 124.890625 49.382812 C 124.890625 46.832031 126.054688 45.832031 129.015625 45.832031 C 126.054688 45.832031 124.890625 44.832031 124.890625 42.285156 " fill-opacity="1" fill-rule="nonzero"/><path fill="rgb(92.549133%, 61.178589%, 56.858826%)" d="M 144.097656 58.789062 C 143.476562 58.789062 142.976562 59.292969 142.976562 59.914062 C 142.976562 60.539062 143.476562 61.042969 144.097656 61.042969 C 144.71875 61.042969 145.222656 60.539062 145.222656 59.914062 C 145.222656 59.292969 144.71875 58.789062 144.097656 58.789062 " fill-opacity="1" fill-rule="nonzero"/><path fill="rgb(92.549133%, 61.178589%, 56.858826%)" d="M 126.011719 54.175781 C 125.640625 54.175781 125.339844 54.476562 125.339844 54.847656 C 125.339844 55.222656 125.640625 55.523438 126.011719 55.523438 C 126.382812 55.523438 126.6875 55.222656 126.6875 54.847656 C 126.6875 54.476562 126.382812 54.175781 126.011719 54.175781 " fill-opacity="1" fill-rule="nonzero"/><path fill="rgb(92.549133%, 61.178589%, 56.858826%)" d="M 169.683594 43.488281 C 169.539062 46.75 167.992188 47.964844 164.203125 47.796875 C 167.992188 47.964844 169.425781 49.308594 169.28125 52.570312 C 169.425781 49.308594 170.972656 48.09375 174.761719 48.261719 C 170.972656 48.09375 169.539062 46.75 169.683594 43.488281 " fill-opacity="1" fill-rule="nonzero"/><path fill="rgb(92.549133%, 61.178589%, 56.858826%)" d="M 160.59375 60.59375 C 160.222656 60.59375 159.921875 60.894531 159.921875 61.265625 C 159.921875 61.640625 160.222656 61.941406 160.59375 61.941406 C 160.96875 61.941406 161.269531 61.640625 161.269531 61.265625 C 161.269531 60.894531 160.96875 60.59375 160.59375 60.59375 " fill-opacity="1" fill-rule="nonzero"/><path fill="rgb(92.549133%, 61.178589%, 56.858826%)" d="M 77.792969 46.632812 C 77.792969 48.605469 76.890625 49.382812 74.597656 49.382812 C 76.890625 49.382812 77.792969 50.15625 77.792969 52.125 C 77.792969 50.15625 78.695312 49.382812 80.988281 49.382812 C 78.695312 49.382812 77.792969 48.605469 77.792969 46.632812 " fill-opacity="1" fill-rule="nonzero"/><g clip-path="url(#id3)"><path fill="rgb(92.549133%, 61.178589%, 56.858826%)" d="M 208.460938 0.511719 C 208.460938 3.773438 206.972656 5.058594 203.175781 5.058594 C 206.972656 5.058594 208.460938 6.339844 208.460938 9.601562 C 208.460938 6.339844 209.953125 5.058594 213.746094 5.058594 C 209.953125 5.058594 208.460938 3.773438 208.460938 0.511719 " fill-opacity="1" fill-rule="nonzero"/></g><path fill="rgb(92.549133%, 61.178589%, 56.858826%)" d="M 153.757812 26.34375 C 153.757812 28.890625 152.59375 29.890625 149.632812 29.890625 C 152.59375 29.890625 153.757812 30.894531 153.757812 33.4375 C 153.757812 30.894531 154.917969 29.890625 157.882812 29.890625 C 154.917969 29.890625 153.757812 28.890625 153.757812 26.34375 " fill-opacity="1" fill-rule="nonzero"/><path fill="rgb(92.549133%, 61.178589%, 56.858826%)" d="M 174.144531 15.207031 C 174 18.464844 172.453125 19.683594 168.660156 19.515625 C 172.453125 19.683594 173.886719 21.027344 173.742188 24.289062 C 173.886719 21.027344 175.433594 19.8125 179.222656 19.980469 C 175.433594 19.8125 174 18.464844 174.144531 15.207031 " fill-opacity="1" fill-rule="nonzero"/><path fill="rgb(92.549133%, 61.178589%, 56.858826%)" d="M 193.894531 12.460938 C 193.894531 14.433594 192.996094 15.207031 190.699219 15.207031 C 192.996094 15.207031 193.894531 15.980469 193.894531 17.957031 C 193.894531 15.980469 194.796875 15.207031 197.089844 15.207031 C 194.796875 15.207031 193.894531 14.433594 193.894531 12.460938 " fill-opacity="1" fill-rule="nonzero"/><path fill="rgb(92.549133%, 61.178589%, 56.858826%)" d="M 210.851562 16.324219 C 210.851562 18.296875 209.953125 19.074219 207.65625 19.074219 C 209.953125 19.074219 210.851562 19.847656 210.851562 21.820312 C 210.851562 19.847656 211.753906 19.074219 214.050781 19.074219 C 211.753906 19.074219 210.851562 18.296875 210.851562 16.324219 " fill-opacity="1" fill-rule="nonzero"/><path fill="rgb(92.549133%, 61.178589%, 56.858826%)" d="M 80.988281 23.613281 C 80.613281 23.613281 80.3125 23.914062 80.3125 24.289062 C 80.3125 24.664062 80.613281 24.964844 80.988281 24.964844 C 81.359375 24.964844 81.660156 24.664062 81.660156 24.289062 C 81.660156 23.914062 81.359375 23.613281 80.988281 23.613281 " fill-opacity="1" fill-rule="nonzero"/><path fill="rgb(92.549133%, 61.178589%, 56.858826%)" d="M 187.335938 26.585938 C 187.191406 29.847656 185.644531 31.0625 181.855469 30.894531 C 185.644531 31.0625 187.078125 32.410156 186.933594 35.667969 C 187.078125 32.410156 188.625 31.191406 192.414062 31.359375 C 188.625 31.191406 187.191406 29.847656 187.335938 26.585938 " fill-opacity="1" fill-rule="nonzero"/><g clip-path="url(#id4)"><path fill="rgb(92.549133%, 61.178589%, 56.858826%)" d="M 132.796875 70.675781 C 132.796875 73.9375 131.304688 75.21875 127.511719 75.21875 C 131.304688 75.21875 132.796875 76.5 132.796875 79.765625 C 132.796875 76.5 134.289062 75.21875 138.082031 75.21875 C 134.289062 75.21875 132.796875 73.9375 132.796875 70.675781 " fill-opacity="1" fill-rule="nonzero"/></g><path fill="rgb(92.549133%, 61.178589%, 56.858826%)" d="M 102.632812 25.632812 C 102.632812 27.605469 101.730469 28.378906 99.4375 28.378906 C 101.730469 28.378906 102.632812 29.15625 102.632812 31.125 C 102.632812 29.15625 103.535156 28.378906 105.828125 28.378906 C 103.535156 28.378906 102.632812 27.605469 102.632812 25.632812 " fill-opacity="1" fill-rule="nonzero"/><path fill="rgb(92.549133%, 61.178589%, 56.858826%)" d="M 135.992188 31.058594 C 135.992188 33.03125 135.089844 33.808594 132.796875 33.808594 C 135.089844 33.808594 135.992188 34.582031 135.992188 36.554688 C 135.992188 34.582031 136.894531 33.808594 139.1875 33.808594 C 136.894531 33.808594 135.992188 33.03125 135.992188 31.058594 " fill-opacity="1" fill-rule="nonzero"/><path fill="rgb(92.549133%, 61.178589%, 56.858826%)" d="M 184.722656 48.703125 C 184.351562 48.703125 184.050781 49.003906 184.050781 49.382812 C 184.050781 49.753906 184.351562 50.054688 184.722656 50.054688 C 185.097656 50.054688 185.398438 49.753906 185.398438 49.382812 C 185.398438 49.003906 185.097656 48.703125 184.722656 48.703125 " fill-opacity="1" fill-rule="nonzero"/><path fill="rgb(92.549133%, 61.178589%, 56.858826%)" d="M 116.777344 33.621094 C 116.402344 33.621094 116.101562 33.921875 116.101562 34.296875 C 116.101562 34.667969 116.402344 34.972656 116.777344 34.972656 C 117.148438 34.972656 117.449219 34.667969 117.449219 34.296875 C 117.449219 33.921875 117.148438 33.621094 116.777344 33.621094 " fill-opacity="1" fill-rule="nonzero"/><path fill="rgb(92.549133%, 61.178589%, 56.858826%)" d="M 171.84375 35.878906 C 171.472656 35.878906 171.167969 36.179688 171.167969 36.554688 C 171.167969 36.929688 171.472656 37.230469 171.84375 37.230469 C 172.214844 37.230469 172.515625 36.929688 172.515625 36.554688 C 172.515625 36.179688 172.214844 35.878906 171.84375 35.878906 " fill-opacity="1" fill-rule="nonzero"/><path fill="rgb(92.549133%, 61.178589%, 56.858826%)" d="M 199.316406 27.703125 C 198.941406 27.703125 198.640625 28.007812 198.640625 28.378906 C 198.640625 28.753906 198.941406 29.054688 199.316406 29.054688 C 199.6875 29.054688 199.988281 28.753906 199.988281 28.378906 C 199.988281 28.007812 199.6875 27.703125 199.316406 27.703125 " fill-opacity="1" fill-rule="nonzero"/><path fill="rgb(92.549133%, 61.178589%, 56.858826%)" d="M 225.304688 7.019531 C 224.933594 7.019531 224.632812 7.320312 224.632812 7.695312 C 224.632812 8.066406 224.933594 8.371094 225.304688 8.371094 C 225.679688 8.371094 225.980469 8.066406 225.980469 7.695312 C 225.980469 7.320312 225.679688 7.019531 225.304688 7.019531 " fill-opacity="1" fill-rule="nonzero"/><path fill="rgb(92.549133%, 61.178589%, 56.858826%)" d="M 197.089844 6.34375 C 196.71875 6.34375 196.417969 6.644531 196.417969 7.019531 C 196.417969 7.390625 196.71875 7.695312 197.089844 7.695312 C 197.460938 7.695312 197.765625 7.390625 197.765625 7.019531 C 197.765625 6.644531 197.460938 6.34375 197.089844 6.34375 " fill-opacity="1" fill-rule="nonzero"/></g></g></g><g mask="url(#id6)"><g transform="matrix(1, 0, 0, 1, 78, 64)"><g clip-path="url(#id8)"><path fill="rgb(98.039246%, 97.24884%, 96.859741%)" d="M 118.699219 154.179688 C 104.972656 154.179688 93.824219 143.035156 93.824219 129.3125 C 93.824219 115.589844 104.972656 104.449219 118.699219 104.449219 C 132.425781 104.449219 143.574219 115.589844 143.574219 129.3125 C 143.574219 143.035156 132.425781 154.179688 118.699219 154.179688 Z M 118.699219 104.984375 C 105.261719 104.984375 94.359375 115.882812 94.359375 129.3125 C 94.359375 142.742188 105.261719 153.644531 118.699219 153.644531 C 132.132812 153.644531 143.039062 142.742188 143.039062 129.3125 C 142.988281 115.933594 132.085938 104.984375 118.699219 104.984375 Z M 118.699219 104.984375 " fill-opacity="1" fill-rule="nonzero"/><path fill="rgb(92.549133%, 61.178589%, 56.858826%)" d="M 158.8125 134.324219 L 195.175781 129.3125 L 156.035156 123.914062 L 192.011719 107.613281 L 155.792969 113.109375 L 184.417969 90.289062 L 150.585938 104.546875 L 172.734375 75.300781 L 142.550781 99.535156 L 155.160156 62.164062 L 133.449219 91.601562 L 137.539062 55.253906 L 123.664062 89.21875 L 118.648438 52.871094 L 113.246094 91.992188 L 96.9375 56.03125 L 102.441406 92.234375 L 79.609375 63.625 L 93.871094 97.441406 L 64.617188 75.300781 L 88.417969 106.734375 L 51.472656 92.820312 L 80.921875 114.519531 L 44.558594 110.433594 L 78.539062 124.300781 L 42.175781 129.3125 L 81.3125 134.714844 L 45.339844 151.015625 L 81.554688 145.515625 L 52.933594 168.339844 L 86.765625 154.082031 L 64.617188 183.324219 L 96.0625 159.53125 L 82.140625 196.464844 L 103.851562 167.023438 L 99.761719 203.371094 L 113.636719 169.410156 L 118.648438 205.757812 L 124.054688 166.636719 L 140.359375 202.59375 L 134.859375 166.390625 L 157.691406 195.003906 L 143.429688 161.183594 L 172.683594 183.324219 L 148.878906 151.890625 L 185.828125 165.808594 L 156.378906 144.105469 L 192.742188 148.195312 Z M 118.699219 158.851562 C 102.390625 158.851562 89.148438 145.613281 89.148438 129.3125 C 89.148438 113.011719 102.390625 99.777344 118.699219 99.777344 C 135.007812 99.777344 148.246094 113.011719 148.246094 129.3125 C 148.246094 145.613281 135.007812 158.851562 118.699219 158.851562 Z M 118.699219 158.851562 " fill-opacity="1" fill-rule="nonzero"/><g clip-path="url(#id7)"><path fill="rgb(92.939758%, 77.249146%, 87.838745%)" d="M 133.058594 16.277344 C 157.984375 23.480469 180.085938 40.316406 193.277344 64.984375 C 219.175781 113.449219 200.871094 173.789062 152.386719 199.675781 C 103.898438 225.5625 43.535156 207.265625 17.640625 158.800781 C 17.152344 157.925781 16.714844 157.050781 16.277344 156.171875 C 65.832031 169.699219 117.238281 150.820312 138.367188 108.246094 C 152.921875 78.855469 149.804688 44.839844 133.058594 16.277344 Z M 116.460938 30.4375 C 116.460938 35.402344 115.097656 37.394531 111.785156 37.394531 C 115.097656 37.394531 116.460938 39.441406 116.460938 44.355469 C 116.460938 39.390625 117.824219 37.394531 121.132812 37.394531 C 117.824219 37.394531 116.460938 35.402344 116.460938 30.4375 Z M 28.347656 118.707031 C 28.347656 123.667969 26.984375 125.664062 23.675781 125.664062 C 26.984375 125.664062 28.347656 127.707031 28.347656 132.621094 C 28.347656 127.660156 29.710938 125.664062 33.023438 125.664062 C 29.710938 125.664062 28.347656 123.667969 28.347656 118.707031 Z M 81.457031 4.941406 C 81.457031 9.902344 80.09375 11.898438 76.785156 11.898438 C 80.09375 11.898438 81.457031 13.941406 81.457031 18.855469 C 81.457031 13.894531 82.820312 11.898438 86.132812 11.898438 C 82.820312 11.898438 81.457031 9.902344 81.457031 4.941406 Z M 54.832031 49.757812 C 54.832031 54.71875 53.46875 56.714844 50.15625 56.714844 C 53.46875 56.714844 54.832031 58.757812 54.832031 63.671875 C 54.832031 58.710938 56.195312 56.714844 59.503906 56.714844 C 56.195312 56.714844 54.832031 54.671875 54.832031 49.757812 Z M 11.214844 71.652344 C 11.214844 76.617188 9.851562 78.609375 6.539062 78.609375 C 9.851562 78.609375 11.214844 80.65625 11.214844 85.570312 C 11.214844 80.605469 12.578125 78.609375 15.886719 78.609375 C 12.578125 78.609375 11.214844 76.617188 11.214844 71.652344 Z M 215.328125 101.042969 C 215.132812 101.820312 215.570312 102.648438 216.398438 102.84375 C 217.179688 103.039062 218.003906 102.601562 218.199219 101.773438 C 218.394531 100.992188 217.957031 100.167969 217.128906 99.972656 C 216.351562 99.777344 215.570312 100.214844 215.328125 101.042969 Z M 214.648438 92.722656 C 214.453125 93.5 214.890625 94.328125 215.71875 94.523438 C 216.546875 94.71875 217.324219 94.277344 217.519531 93.453125 C 217.714844 92.671875 217.277344 91.847656 216.449219 91.652344 C 215.667969 91.457031 214.839844 91.894531 214.648438 92.722656 Z M 212.601562 84.597656 C 212.40625 85.375 212.84375 86.203125 213.671875 86.394531 C 214.5 86.589844 215.28125 86.152344 215.472656 85.324219 C 215.667969 84.546875 215.230469 83.71875 214.402344 83.523438 C 213.574219 83.332031 212.84375 83.769531 212.601562 84.597656 Z M 210.605469 76.46875 C 210.410156 77.25 210.851562 78.074219 211.675781 78.269531 C 212.457031 78.464844 213.285156 78.027344 213.480469 77.199219 C 213.671875 76.421875 213.234375 75.59375 212.40625 75.398438 C 211.628906 75.203125 210.851562 75.691406 210.605469 76.46875 Z M 207.492188 68.734375 C 207.296875 69.511719 207.734375 70.339844 208.5625 70.535156 C 209.390625 70.726562 210.167969 70.289062 210.363281 69.460938 C 210.558594 68.683594 210.121094 67.855469 209.292969 67.664062 C 208.511719 67.46875 207.6875 67.953125 207.492188 68.734375 Z M 204.230469 61.042969 C 204.035156 61.824219 204.472656 62.652344 205.300781 62.84375 C 206.128906 63.039062 206.90625 62.601562 207.101562 61.773438 C 207.296875 60.996094 206.859375 60.167969 206.03125 59.972656 C 205.25 59.78125 204.425781 60.21875 204.230469 61.042969 Z M 199.996094 53.792969 C 199.800781 54.574219 200.238281 55.398438 201.066406 55.59375 C 201.84375 55.789062 202.671875 55.351562 202.867188 54.523438 C 203.0625 53.746094 202.621094 52.917969 201.796875 52.722656 C 200.96875 52.53125 200.238281 53.015625 199.996094 53.792969 Z M 195.613281 46.691406 C 195.417969 47.46875 195.855469 48.296875 196.683594 48.492188 C 197.460938 48.683594 198.289062 48.246094 198.484375 47.421875 C 198.679688 46.640625 198.242188 45.816406 197.414062 45.621094 C 196.636719 45.472656 195.808594 45.910156 195.613281 46.691406 Z M 190.402344 40.171875 C 190.210938 40.949219 190.648438 41.777344 191.476562 41.96875 C 192.304688 42.164062 193.082031 41.726562 193.277344 40.898438 C 193.472656 40.121094 193.03125 39.292969 192.207031 39.097656 C 191.378906 38.90625 190.648438 39.390625 190.402344 40.171875 Z M 184.953125 33.84375 C 184.757812 34.621094 185.195312 35.449219 186.023438 35.644531 C 186.851562 35.839844 187.628906 35.402344 187.824219 34.574219 C 188.019531 33.796875 187.582031 32.96875 186.753906 32.773438 C 185.972656 32.578125 185.195312 33.066406 184.953125 33.84375 Z M 178.914062 28.101562 C 178.722656 28.882812 179.160156 29.707031 179.988281 29.902344 C 180.765625 30.097656 181.59375 29.660156 181.789062 28.832031 C 181.984375 28.054688 181.542969 27.226562 180.71875 27.03125 C 179.9375 26.835938 179.109375 27.324219 178.914062 28.101562 Z M 172.539062 22.652344 C 172.34375 23.429688 172.78125 24.257812 173.609375 24.453125 C 174.386719 24.648438 175.214844 24.210938 175.410156 23.382812 C 175.605469 22.605469 175.167969 21.777344 174.339844 21.582031 C 173.5625 21.386719 172.78125 21.875 172.539062 22.652344 Z M 165.722656 17.882812 C 165.527344 18.664062 165.96875 19.488281 166.792969 19.683594 C 167.574219 19.878906 168.402344 19.441406 168.59375 18.613281 C 168.789062 17.835938 168.351562 17.007812 167.523438 16.8125 C 166.746094 16.617188 165.917969 17.105469 165.722656 17.882812 Z M 158.617188 13.457031 C 158.421875 14.234375 158.859375 15.0625 159.6875 15.257812 C 160.464844 15.449219 161.292969 15.011719 161.488281 14.1875 C 161.683594 13.40625 161.246094 12.582031 160.417969 12.386719 C 159.636719 12.238281 158.8125 12.675781 158.617188 13.457031 Z M 151.167969 9.710938 C 150.972656 10.488281 151.410156 11.316406 152.238281 11.511719 C 153.019531 11.703125 153.84375 11.265625 154.039062 10.4375 C 154.234375 9.660156 153.796875 8.832031 152.96875 8.640625 C 152.191406 8.445312 151.363281 8.929688 151.167969 9.710938 Z M 143.476562 6.449219 C 143.28125 7.226562 143.71875 8.054688 144.546875 8.25 C 145.328125 8.445312 146.152344 8.007812 146.347656 7.179688 C 146.542969 6.402344 146.105469 5.574219 145.277344 5.378906 C 144.5 5.183594 143.671875 5.671875 143.476562 6.449219 Z M 135.542969 3.820312 C 135.347656 4.601562 135.785156 5.425781 136.613281 5.621094 C 137.390625 5.816406 138.21875 5.378906 138.414062 4.550781 C 138.609375 3.773438 138.171875 2.945312 137.34375 2.75 C 136.5625 2.554688 135.785156 2.996094 135.542969 3.820312 Z M 127.460938 1.828125 C 127.265625 2.605469 127.703125 3.433594 128.53125 3.628906 C 129.3125 3.820312 130.136719 3.382812 130.332031 2.554688 C 130.527344 1.777344 130.089844 0.949219 129.261719 0.757812 C 128.433594 0.5625 127.65625 1 127.460938 1.828125 Z M 0.0664062 152.816406 C -0.128906 153.59375 0.308594 154.421875 1.136719 154.617188 C 1.914062 154.8125 2.742188 154.375 2.9375 153.546875 C 3.132812 152.765625 2.695312 151.941406 1.867188 151.746094 C 1.089844 151.597656 0.261719 152.039062 0.0664062 152.816406 Z M 3.328125 160.554688 C 3.132812 161.332031 3.570312 162.160156 4.398438 162.351562 C 5.175781 162.546875 6.003906 162.109375 6.199219 161.28125 C 6.394531 160.503906 5.957031 159.675781 5.128906 159.480469 C 4.347656 159.289062 3.523438 159.726562 3.328125 160.554688 Z M 7.417969 167.804688 C 7.222656 168.582031 7.660156 169.410156 8.488281 169.601562 C 9.265625 169.796875 10.09375 169.359375 10.289062 168.53125 C 10.484375 167.753906 10.046875 166.925781 9.21875 166.734375 C 8.4375 166.539062 7.609375 167.023438 7.417969 167.804688 Z M 11.796875 174.90625 C 11.601562 175.6875 12.039062 176.511719 12.867188 176.707031 C 13.648438 176.902344 14.476562 176.464844 14.667969 175.636719 C 14.863281 174.859375 14.425781 174.03125 13.597656 173.835938 C 12.820312 173.640625 12.039062 174.128906 11.796875 174.90625 Z M 16.910156 181.523438 C 16.714844 182.304688 17.152344 183.128906 17.980469 183.324219 C 18.757812 183.519531 19.585938 183.082031 19.78125 182.253906 C 19.976562 181.476562 19.539062 180.648438 18.710938 180.453125 C 17.929688 180.257812 17.105469 180.746094 16.910156 181.523438 Z M 22.3125 187.898438 C 22.117188 188.679688 22.554688 189.503906 23.382812 189.699219 C 24.164062 189.894531 24.988281 189.457031 25.183594 188.628906 C 25.378906 187.851562 24.941406 187.023438 24.113281 186.828125 C 23.335938 186.632812 22.554688 187.070312 22.3125 187.898438 Z M 28.300781 193.691406 C 28.105469 194.46875 28.542969 195.296875 29.371094 195.488281 C 30.148438 195.683594 30.976562 195.246094 31.171875 194.417969 C 31.367188 193.640625 30.929688 192.8125 30.101562 192.621094 C 29.324219 192.425781 28.496094 192.910156 28.300781 193.691406 Z M 34.675781 199.140625 C 34.480469 199.917969 34.921875 200.746094 35.75 200.941406 C 36.527344 201.132812 37.355469 200.695312 37.550781 199.871094 C 37.742188 199.089844 37.304688 198.261719 36.476562 198.070312 C 35.652344 197.875 34.871094 198.359375 34.675781 199.140625 Z M 41.394531 204.054688 C 41.199219 204.832031 41.636719 205.660156 42.464844 205.855469 C 43.246094 206.050781 44.074219 205.609375 44.265625 204.785156 C 44.460938 204.003906 44.023438 203.179688 43.195312 202.984375 C 42.417969 202.789062 41.589844 203.277344 41.394531 204.054688 Z M 48.503906 208.433594 C 48.308594 209.210938 48.746094 210.039062 49.574219 210.234375 C 50.351562 210.429688 51.179688 209.992188 51.375 209.164062 C 51.570312 208.382812 51.132812 207.558594 50.304688 207.363281 C 49.523438 207.21875 48.695312 207.65625 48.503906 208.433594 Z M 55.902344 212.324219 C 55.707031 213.105469 56.144531 213.933594 56.972656 214.125 C 57.75 214.320312 58.578125 213.882812 58.773438 213.054688 C 58.96875 212.277344 58.53125 211.449219 57.703125 211.253906 C 56.925781 211.0625 56.097656 211.546875 55.902344 212.324219 Z M 63.59375 215.585938 C 63.398438 216.363281 63.835938 217.191406 64.664062 217.386719 C 65.441406 217.582031 66.269531 217.144531 66.464844 216.316406 C 66.660156 215.488281 66.222656 214.710938 65.394531 214.515625 C 64.617188 214.320312 63.789062 214.808594 63.59375 215.585938 Z M 71.429688 218.410156 C 71.234375 219.1875 71.675781 220.015625 72.5 220.207031 C 73.28125 220.402344 74.109375 219.964844 74.300781 219.136719 C 74.496094 218.359375 74.058594 217.53125 73.230469 217.339844 C 72.453125 217.144531 71.675781 217.582031 71.429688 218.410156 Z M 79.558594 220.402344 C 79.367188 221.183594 79.804688 222.007812 80.632812 222.203125 C 81.410156 222.398438 82.238281 221.960938 82.433594 221.132812 C 82.625 220.304688 82.1875 219.527344 81.359375 219.332031 C 80.582031 219.136719 79.753906 219.578125 79.558594 220.402344 Z M 87.738281 222.058594 C 87.542969 222.835938 87.980469 223.664062 88.808594 223.859375 C 89.589844 224.054688 90.414062 223.613281 90.609375 222.789062 C 90.804688 221.960938 90.367188 221.183594 89.539062 220.988281 C 88.761719 220.792969 87.933594 221.28125 87.738281 222.058594 Z M 96.0625 222.738281 C 95.867188 223.519531 96.304688 224.34375 97.132812 224.539062 C 97.914062 224.734375 98.738281 224.296875 98.933594 223.46875 C 99.128906 222.691406 98.691406 221.863281 97.863281 221.667969 C 97.085938 221.472656 96.304688 221.960938 96.0625 222.738281 Z M 104.433594 223.324219 C 104.242188 224.101562 104.679688 224.929688 105.507812 225.125 C 106.285156 225.316406 107.113281 224.878906 107.308594 224.054688 C 107.503906 223.226562 107.0625 222.445312 106.238281 222.253906 C 105.457031 222.058594 104.628906 222.542969 104.433594 223.324219 Z M 112.757812 222.640625 C 112.566406 223.421875 113.003906 224.246094 113.832031 224.441406 C 114.609375 224.636719 115.4375 224.199219 115.632812 223.371094 C 115.828125 222.542969 115.386719 221.765625 114.5625 221.570312 C 113.78125 221.425781 112.953125 221.863281 112.757812 222.640625 Z M 121.085938 222.007812 C 120.890625 222.789062 121.328125 223.613281 122.15625 223.808594 C 122.933594 224.003906 123.761719 223.566406 123.957031 222.738281 C 124.152344 221.960938 123.710938 221.132812 122.886719 220.9375 C 122.105469 220.746094 121.277344 221.183594 121.085938 222.007812 Z M 129.261719 220.160156 C 129.066406 220.9375 129.503906 221.765625 130.332031 221.960938 C 131.113281 222.15625 131.941406 221.71875 132.132812 220.890625 C 132.328125 220.113281 131.890625 219.285156 131.0625 219.089844 C 130.234375 218.894531 129.457031 219.382812 129.261719 220.160156 Z M 137.34375 218.164062 C 137.148438 218.945312 137.585938 219.769531 138.414062 219.964844 C 139.191406 220.160156 140.019531 219.722656 140.214844 218.894531 C 140.410156 218.117188 139.972656 217.289062 139.144531 217.09375 C 138.367188 216.898438 137.585938 217.386719 137.34375 218.164062 Z M 145.179688 215.246094 C 144.984375 216.023438 145.425781 216.851562 146.25 217.046875 C 147.03125 217.242188 147.859375 216.804688 148.050781 215.976562 C 148.246094 215.195312 147.808594 214.371094 146.980469 214.175781 C 146.203125 213.980469 145.375 214.417969 145.179688 215.246094 Z M 152.871094 211.984375 C 152.675781 212.765625 153.117188 213.589844 153.941406 213.785156 C 154.722656 213.980469 155.550781 213.542969 155.742188 212.714844 C 155.9375 211.9375 155.5 211.109375 154.671875 210.914062 C 153.894531 210.71875 153.066406 211.207031 152.871094 211.984375 Z M 160.175781 207.945312 C 159.980469 208.726562 160.417969 209.550781 161.246094 209.746094 C 162.023438 209.941406 162.851562 209.503906 163.046875 208.675781 C 163.242188 207.898438 162.800781 207.070312 161.976562 206.875 C 161.195312 206.683594 160.417969 207.167969 160.175781 207.945312 Z M 167.28125 203.566406 C 167.085938 204.347656 167.523438 205.171875 168.351562 205.367188 C 169.132812 205.5625 169.957031 205.125 170.152344 204.296875 C 170.347656 203.519531 169.910156 202.691406 169.082031 202.496094 C 168.304688 202.300781 167.523438 202.742188 167.28125 203.566406 Z M 173.949219 198.554688 C 173.753906 199.335938 174.195312 200.160156 175.019531 200.355469 C 175.800781 200.550781 176.628906 200.113281 176.824219 199.285156 C 177.015625 198.507812 176.578125 197.679688 175.75 197.484375 C 174.972656 197.289062 174.144531 197.726562 173.949219 198.554688 Z M 180.328125 193.105469 C 180.132812 193.882812 180.570312 194.710938 181.398438 194.90625 C 182.175781 195.101562 183.003906 194.664062 183.199219 193.835938 C 183.394531 193.058594 182.957031 192.230469 182.128906 192.035156 C 181.300781 191.839844 180.523438 192.328125 180.328125 193.105469 Z M 186.167969 187.167969 C 185.972656 187.949219 186.414062 188.773438 187.238281 188.96875 C 188.019531 189.164062 188.847656 188.726562 189.042969 187.898438 C 189.234375 187.121094 188.796875 186.292969 187.96875 186.097656 C 187.191406 185.902344 186.363281 186.390625 186.167969 187.167969 Z M 191.621094 180.84375 C 191.425781 181.621094 191.863281 182.449219 192.691406 182.644531 C 193.472656 182.839844 194.296875 182.402344 194.492188 181.574219 C 194.6875 180.796875 194.25 179.96875 193.421875 179.773438 C 192.644531 179.578125 191.816406 180.015625 191.621094 180.84375 Z M 196.585938 174.128906 C 196.390625 174.90625 196.828125 175.734375 197.65625 175.929688 C 198.4375 176.125 199.265625 175.6875 199.457031 174.859375 C 199.652344 174.078125 199.214844 173.253906 198.386719 173.058594 C 197.609375 172.863281 196.78125 173.351562 196.585938 174.128906 Z M 201.015625 167.023438 C 200.820312 167.804688 201.261719 168.628906 202.085938 168.824219 C 202.867188 169.019531 203.695312 168.582031 203.886719 167.753906 C 204.082031 166.976562 203.644531 166.148438 202.816406 165.953125 C 202.039062 165.757812 201.210938 166.246094 201.015625 167.023438 Z M 204.960938 159.675781 C 204.765625 160.457031 205.203125 161.28125 206.03125 161.476562 C 206.808594 161.671875 207.636719 161.234375 207.832031 160.40625 C 208.027344 159.628906 207.589844 158.800781 206.761719 158.605469 C 205.980469 158.410156 205.152344 158.898438 204.960938 159.675781 Z M 208.222656 151.988281 C 208.027344 152.765625 208.464844 153.59375 209.292969 153.789062 C 210.070312 153.984375 210.898438 153.546875 211.09375 152.71875 C 211.289062 151.941406 210.851562 151.113281 210.023438 150.917969 C 209.242188 150.722656 208.414062 151.210938 208.222656 151.988281 Z M 211.09375 144.15625 C 210.898438 144.933594 211.335938 145.761719 212.164062 145.953125 C 212.941406 146.148438 213.769531 145.710938 213.964844 144.882812 C 214.160156 144.105469 213.722656 143.277344 212.894531 143.085938 C 212.066406 142.890625 211.289062 143.375 211.09375 144.15625 Z M 213.089844 136.027344 C 212.894531 136.808594 213.332031 137.632812 214.160156 137.828125 C 214.9375 138.023438 215.765625 137.585938 215.960938 136.757812 C 216.15625 135.980469 215.71875 135.152344 214.890625 134.957031 C 214.113281 134.761719 213.285156 135.25 213.089844 136.027344 Z M 214.839844 127.855469 C 214.648438 128.632812 215.085938 129.460938 215.914062 129.652344 C 216.691406 129.847656 217.519531 129.410156 217.714844 128.582031 C 217.910156 127.804688 217.46875 126.976562 216.644531 126.785156 C 215.863281 126.636719 215.035156 127.074219 214.839844 127.855469 Z M 215.472656 119.53125 C 215.28125 120.3125 215.71875 121.140625 216.546875 121.332031 C 217.324219 121.527344 218.152344 121.089844 218.347656 120.261719 C 218.542969 119.484375 218.101562 118.65625 217.277344 118.460938 C 216.449219 118.269531 215.71875 118.753906 215.472656 119.53125 Z M 216.15625 111.210938 C 215.960938 111.992188 216.398438 112.816406 217.226562 113.011719 C 218.054688 113.207031 218.832031 112.769531 219.027344 111.941406 C 219.222656 111.164062 218.785156 110.335938 217.957031 110.140625 C 217.179688 109.945312 216.398438 110.433594 216.15625 111.210938 Z M 216.15625 111.210938 " fill-opacity="1" fill-rule="nonzero"/></g><path fill="rgb(98.039246%, 97.24884%, 96.859741%)" d="M 145.960938 140.796875 C 146.152344 140.75 146.398438 140.847656 146.445312 141.039062 C 147.664062 143.960938 148.199219 147.367188 147.90625 150.917969 C 147.515625 156.367188 144.984375 161.527344 140.800781 165.371094 C 139.921875 166.195312 139 166.976562 138.121094 167.609375 C 138.121094 167.609375 138.074219 167.609375 138.074219 167.65625 C 137.390625 167.996094 136.710938 167.898438 136.175781 167.316406 C 134.714844 165.710938 134.664062 160.941406 136.613281 158.070312 C 137.441406 156.902344 138.316406 155.6875 139.289062 154.375 C 142.601562 149.992188 146.347656 144.980469 145.617188 141.285156 C 145.570312 141.089844 145.667969 140.941406 145.8125 140.847656 C 145.910156 140.847656 145.910156 140.796875 145.960938 140.796875 Z M 140.265625 164.738281 C 144.253906 161.039062 146.691406 156.074219 147.078125 150.820312 C 147.273438 148.289062 147.03125 145.859375 146.445312 143.621094 C 145.765625 147.171875 142.746094 151.210938 140.019531 154.859375 C 139.046875 156.125 138.121094 157.339844 137.34375 158.507812 C 135.542969 161.136719 135.738281 165.46875 136.855469 166.683594 C 137.101562 166.976562 137.390625 167.023438 137.683594 166.878906 C 138.511719 166.292969 139.386719 165.566406 140.265625 164.738281 Z M 146.203125 142.304688 C 146.542969 144.445312 146.347656 146.832031 145.617188 149.117188 C 144.9375 151.160156 143.816406 153.207031 142.308594 155.152344 C 141.96875 155.589844 141.625 155.980469 141.285156 156.417969 C 140.410156 157.488281 139.535156 158.558594 138.902344 159.773438 C 138.460938 160.601562 138.121094 161.574219 137.828125 162.351562 C 137.292969 163.910156 136.757812 165.613281 137.101562 167.269531 L 137.390625 167.21875 C 137.101562 165.613281 137.585938 163.957031 138.121094 162.449219 C 138.414062 161.671875 138.707031 160.746094 139.144531 159.921875 C 139.777344 158.703125 140.652344 157.632812 141.480469 156.613281 C 141.820312 156.222656 142.164062 155.785156 142.503906 155.347656 C 144.011719 153.351562 145.179688 151.308594 145.863281 149.214844 C 146.640625 146.878906 146.835938 144.496094 146.496094 142.304688 Z M 137.292969 166.976562 C 137.390625 166.34375 137.636719 165.757812 137.925781 165.273438 C 138.21875 164.738281 138.65625 164.300781 139.046875 163.863281 C 139.921875 162.984375 140.945312 162.257812 141.820312 161.378906 C 142.257812 160.941406 142.648438 160.457031 142.988281 159.921875 C 143.332031 159.386719 143.71875 158.945312 144.109375 158.460938 C 144.5 157.972656 144.9375 157.535156 145.328125 157.050781 C 145.714844 156.5625 146.105469 156.074219 146.445312 155.539062 C 146.105469 156.027344 145.667969 156.515625 145.230469 156.953125 L 143.964844 158.316406 C 143.574219 158.753906 143.136719 159.238281 142.796875 159.773438 C 142.453125 160.261719 142.066406 160.746094 141.625 161.183594 C 140.75 162.0625 139.777344 162.792969 138.902344 163.714844 C 138.460938 164.203125 138.074219 164.6875 137.78125 165.222656 C 137.488281 165.710938 137.292969 166.34375 137.292969 166.976562 Z M 137.878906 162.742188 C 138.023438 161.914062 138.460938 161.136719 138.804688 160.359375 C 139.144531 159.578125 139.339844 158.703125 139.582031 157.925781 C 139.777344 157.097656 140.019531 156.269531 140.214844 155.445312 C 140.3125 155.003906 140.410156 154.617188 140.507812 154.226562 C 140.605469 153.835938 140.75 153.398438 140.945312 153.011719 C 140.703125 153.351562 140.554688 153.789062 140.410156 154.179688 C 140.265625 154.566406 140.117188 155.003906 140.019531 155.394531 C 139.777344 156.222656 139.535156 157.050781 139.339844 157.875 C 139.09375 158.703125 138.949219 159.53125 138.65625 160.308594 C 138.511719 160.699219 138.316406 161.089844 138.171875 161.476562 C 137.976562 161.914062 137.878906 162.304688 137.878906 162.742188 Z M 143.039062 154.375 C 143.234375 154.179688 143.476562 153.984375 143.71875 153.789062 C 143.964844 153.59375 144.207031 153.449219 144.449219 153.253906 C 144.9375 152.914062 145.472656 152.574219 145.863281 152.132812 C 146.300781 151.695312 146.59375 151.160156 146.933594 150.625 C 147.078125 150.382812 147.226562 150.089844 147.371094 149.800781 C 147.46875 149.507812 147.613281 149.265625 147.710938 148.972656 C 147.566406 149.214844 147.417969 149.507812 147.273438 149.75 C 147.128906 149.992188 146.980469 150.285156 146.785156 150.527344 C 146.445312 151.015625 146.105469 151.503906 145.714844 151.941406 C 145.328125 152.378906 144.839844 152.71875 144.351562 153.109375 C 144.109375 153.300781 143.867188 153.496094 143.671875 153.691406 C 143.429688 153.886719 143.183594 154.082031 143.039062 154.375 Z M 164.847656 174.324219 C 164.703125 174.421875 164.507812 174.371094 164.359375 174.273438 C 161.632812 171.648438 155.402344 172.183594 149.902344 172.667969 C 148.296875 172.816406 146.785156 172.914062 145.375 173.007812 C 141.917969 173.15625 137.925781 170.578125 137.34375 168.484375 C 137.148438 167.753906 137.390625 167.074219 138.074219 166.683594 C 138.074219 166.683594 138.121094 166.683594 138.121094 166.636719 C 139.09375 166.246094 140.265625 165.855469 141.433594 165.566406 C 146.933594 164.105469 152.578125 164.6875 157.449219 167.269531 C 160.5625 168.921875 163.191406 171.160156 164.992188 173.738281 C 165.140625 173.933594 165.089844 174.175781 164.945312 174.273438 C 164.894531 174.324219 164.894531 174.324219 164.847656 174.324219 Z M 138.414062 167.414062 C 138.121094 167.609375 138.023438 167.851562 138.121094 168.242188 C 138.558594 169.796875 142.113281 172.328125 145.328125 172.183594 C 146.738281 172.132812 148.246094 171.988281 149.855469 171.839844 C 154.382812 171.453125 159.445312 171.015625 162.800781 172.378906 C 161.246094 170.675781 159.296875 169.214844 157.058594 167.996094 C 152.386719 165.515625 146.933594 164.933594 141.625 166.390625 C 140.507812 166.683594 139.386719 167.023438 138.414062 167.414062 Z M 163.972656 173.058594 C 162.316406 171.597656 160.175781 170.480469 157.789062 169.894531 C 155.695312 169.359375 153.308594 169.214844 150.828125 169.457031 C 150.292969 169.507812 149.757812 169.554688 149.222656 169.652344 C 147.90625 169.796875 146.496094 169.992188 145.179688 169.894531 C 144.253906 169.847656 143.28125 169.601562 142.453125 169.410156 C 140.847656 169.019531 139.191406 168.582031 138.023438 167.460938 L 137.828125 167.65625 C 139.09375 168.824219 140.75 169.261719 142.40625 169.652344 C 143.234375 169.847656 144.207031 170.042969 145.132812 170.136719 C 146.496094 170.234375 147.90625 170.089844 149.222656 169.894531 C 149.757812 169.847656 150.292969 169.75 150.828125 169.699219 C 153.308594 169.457031 155.597656 169.601562 157.691406 170.136719 C 160.027344 170.722656 162.121094 171.792969 163.777344 173.253906 Z M 139.972656 168.242188 C 140.605469 168.289062 141.238281 168.242188 141.820312 168.09375 C 143.039062 167.851562 144.207031 167.414062 145.425781 167.121094 C 146.007812 166.976562 146.640625 166.878906 147.226562 166.878906 C 147.859375 166.878906 148.492188 166.734375 149.074219 166.636719 L 150.925781 166.292969 C 151.507812 166.195312 152.140625 166.050781 152.773438 166.050781 C 152.140625 166.050781 151.558594 166.148438 150.925781 166.195312 C 150.292969 166.292969 149.707031 166.390625 149.074219 166.488281 C 148.441406 166.585938 147.859375 166.636719 147.226562 166.636719 C 146.59375 166.636719 145.960938 166.734375 145.375 166.878906 C 144.160156 167.121094 142.988281 167.609375 141.820312 167.898438 C 141.238281 168.046875 140.605469 168.144531 140.019531 168.09375 C 139.386719 168.09375 138.804688 167.949219 138.21875 167.707031 C 138.707031 167.996094 139.339844 168.191406 139.972656 168.242188 Z M 143.234375 169.894531 C 143.671875 169.992188 144.0625 170.042969 144.5 170.136719 C 145.328125 170.332031 146.105469 170.625 146.933594 170.867188 C 147.761719 171.113281 148.589844 171.355469 149.367188 171.597656 C 149.757812 171.695312 150.195312 171.839844 150.632812 171.9375 C 151.070312 172.035156 151.460938 172.085938 151.898438 172.085938 C 151.460938 172.035156 151.070312 171.9375 150.632812 171.792969 C 150.242188 171.695312 149.804688 171.550781 149.414062 171.402344 C 148.589844 171.113281 147.808594 170.867188 146.980469 170.625 C 146.152344 170.382812 145.375 170.089844 144.5 169.945312 C 143.671875 169.796875 142.796875 169.796875 142.015625 169.457031 C 142.40625 169.652344 142.84375 169.796875 143.234375 169.894531 Z M 152.824219 169.410156 C 153.117188 169.3125 153.40625 169.214844 153.699219 169.117188 C 154.285156 168.921875 154.820312 168.679688 155.402344 168.582031 C 155.988281 168.484375 156.570312 168.4375 157.15625 168.4375 C 157.449219 168.4375 157.738281 168.4375 158.03125 168.4375 C 158.324219 168.4375 158.617188 168.4375 158.957031 168.484375 C 158.664062 168.386719 158.371094 168.339844 158.082031 168.339844 C 157.789062 168.289062 157.496094 168.289062 157.15625 168.242188 C 156.570312 168.191406 155.9375 168.242188 155.355469 168.339844 C 154.722656 168.4375 154.1875 168.679688 153.652344 168.921875 C 153.359375 169.066406 153.117188 169.164062 152.824219 169.261719 C 152.53125 169.359375 152.238281 169.457031 151.945312 169.554688 C 152.191406 169.554688 152.484375 169.457031 152.824219 169.410156 Z M 124.832031 154.519531 C 125.027344 154.519531 125.222656 154.664062 125.269531 154.859375 C 125.855469 157.972656 125.660156 161.378906 124.6875 164.835938 C 123.175781 170.089844 119.671875 174.617188 114.804688 177.535156 C 113.78125 178.167969 112.710938 178.703125 111.738281 179.1875 C 111.738281 179.1875 111.6875 179.1875 111.6875 179.1875 C 110.957031 179.382812 110.324219 179.140625 109.886719 178.460938 C 108.816406 176.5625 109.742188 171.890625 112.222656 169.507812 C 113.246094 168.53125 114.414062 167.511719 115.632812 166.441406 C 119.769531 162.839844 124.492188 158.703125 124.492188 154.910156 C 124.492188 154.714844 124.589844 154.566406 124.785156 154.519531 C 124.734375 154.519531 124.785156 154.519531 124.832031 154.519531 Z M 114.367188 176.804688 C 119.039062 173.984375 122.445312 169.652344 123.90625 164.589844 C 124.589844 162.160156 124.882812 159.726562 124.734375 157.4375 C 123.371094 160.796875 119.574219 164.105469 116.117188 167.121094 C 114.902344 168.191406 113.78125 169.164062 112.757812 170.136719 C 110.421875 172.378906 109.789062 176.660156 110.570312 178.070312 C 110.765625 178.410156 111.007812 178.507812 111.347656 178.410156 C 112.320312 177.972656 113.34375 177.390625 114.367188 176.804688 Z M 124.785156 156.027344 C 124.6875 158.21875 124.003906 160.457031 122.789062 162.546875 C 121.71875 164.398438 120.207031 166.148438 118.359375 167.804688 C 117.96875 168.144531 117.53125 168.484375 117.140625 168.824219 C 116.070312 169.652344 115 170.527344 114.121094 171.597656 C 113.488281 172.328125 113.003906 173.15625 112.566406 173.886719 C 111.6875 175.296875 110.859375 176.855469 110.859375 178.558594 L 111.152344 178.558594 C 111.203125 176.902344 111.980469 175.394531 112.855469 174.03125 C 113.296875 173.300781 113.78125 172.472656 114.414062 171.746094 C 115.292969 170.722656 116.363281 169.847656 117.382812 168.972656 C 117.773438 168.628906 118.210938 168.289062 118.601562 167.949219 C 120.5 166.292969 122.007812 164.542969 123.128906 162.644531 C 124.34375 160.503906 125.074219 158.21875 125.125 155.980469 Z M 111.007812 178.363281 C 111.203125 177.777344 111.542969 177.242188 111.980469 176.804688 C 112.371094 176.367188 112.855469 175.976562 113.390625 175.636719 C 114.414062 174.957031 115.535156 174.46875 116.605469 173.738281 C 117.140625 173.398438 117.628906 173.007812 118.066406 172.570312 C 118.503906 172.132812 118.992188 171.746094 119.476562 171.355469 C 119.964844 170.964844 120.449219 170.625 120.9375 170.234375 C 121.425781 169.847656 121.910156 169.457031 122.351562 169.019531 C 121.910156 169.457031 121.375 169.796875 120.890625 170.136719 L 119.378906 171.210938 C 118.894531 171.550781 118.359375 171.9375 117.917969 172.378906 C 117.480469 172.816406 116.996094 173.203125 116.460938 173.496094 C 115.4375 174.175781 114.316406 174.710938 113.296875 175.394531 C 112.808594 175.78125 112.320312 176.171875 111.882812 176.660156 C 111.445312 177.195312 111.152344 177.777344 111.007812 178.363281 Z M 112.46875 174.371094 C 112.757812 173.542969 113.34375 172.960938 113.832031 172.230469 C 114.316406 171.5 114.707031 170.722656 115.097656 169.992188 C 115.484375 169.214844 115.875 168.484375 116.214844 167.707031 C 116.410156 167.316406 116.558594 166.925781 116.800781 166.539062 C 116.996094 166.148438 117.191406 165.808594 117.480469 165.46875 C 117.191406 165.757812 116.945312 166.148438 116.703125 166.488281 C 116.460938 166.828125 116.265625 167.21875 116.070312 167.609375 C 115.679688 168.339844 115.292969 169.117188 114.902344 169.894531 C 114.511719 170.675781 114.171875 171.453125 113.734375 172.132812 C 113.488281 172.472656 113.246094 172.816406 113.050781 173.203125 C 112.757812 173.542969 112.515625 173.933594 112.46875 174.371094 Z M 119.183594 167.21875 C 119.429688 167.074219 119.722656 166.925781 119.964844 166.78125 C 120.257812 166.636719 120.5 166.539062 120.792969 166.441406 C 121.328125 166.195312 121.910156 165.953125 122.398438 165.613281 C 122.886719 165.273438 123.324219 164.835938 123.710938 164.347656 C 123.90625 164.105469 124.101562 163.863281 124.296875 163.667969 C 124.492188 163.421875 124.636719 163.179688 124.785156 162.886719 C 124.589844 163.132812 124.394531 163.328125 124.199219 163.570312 C 124.003906 163.8125 123.808594 164.007812 123.566406 164.203125 C 123.128906 164.589844 122.691406 165.03125 122.203125 165.371094 C 121.71875 165.710938 121.179688 165.953125 120.644531 166.246094 C 120.355469 166.390625 120.109375 166.539062 119.867188 166.683594 C 119.671875 166.828125 119.429688 166.976562 119.183594 167.21875 Z M 136.46875 191.207031 C 136.320312 191.257812 136.125 191.207031 135.980469 191.0625 C 133.839844 187.949219 127.65625 187.167969 122.15625 186.535156 C 120.546875 186.34375 119.039062 186.148438 117.628906 185.902344 C 114.21875 185.320312 110.859375 182.011719 110.667969 179.820312 C 110.617188 179.042969 111.007812 178.460938 111.738281 178.214844 C 111.738281 178.214844 111.785156 178.214844 111.785156 178.214844 C 112.855469 178.019531 114.027344 177.925781 115.242188 177.828125 C 120.890625 177.484375 126.339844 179.238281 130.578125 182.742188 C 133.300781 185.027344 135.394531 187.753906 136.660156 190.625 C 136.757812 190.820312 136.660156 191.0625 136.46875 191.160156 C 136.5625 191.207031 136.515625 191.207031 136.46875 191.207031 Z M 112.03125 179.042969 C 111.6875 179.140625 111.542969 179.382812 111.589844 179.773438 C 111.738281 181.425781 114.707031 184.589844 117.871094 185.078125 C 119.234375 185.320312 120.742188 185.464844 122.351562 185.660156 C 126.875 186.195312 131.890625 186.828125 134.910156 188.824219 C 133.742188 186.828125 132.085938 184.980469 130.136719 183.375 C 126.097656 180.015625 120.839844 178.3125 115.386719 178.652344 C 114.21875 178.75 113.050781 178.847656 112.03125 179.042969 Z M 135.882812 189.796875 C 134.566406 187.996094 132.667969 186.488281 130.480469 185.417969 C 128.53125 184.492188 126.242188 183.859375 123.761719 183.570312 C 123.226562 183.519531 122.691406 183.472656 122.15625 183.421875 C 120.839844 183.324219 119.429688 183.226562 118.113281 182.839844 C 117.191406 182.59375 116.3125 182.15625 115.582031 181.816406 C 114.121094 181.136719 112.566406 180.355469 111.640625 178.996094 L 111.398438 179.140625 C 112.371094 180.550781 113.929688 181.332031 115.4375 182.058594 C 116.214844 182.402344 117.09375 182.839844 118.015625 183.082031 C 119.332031 183.472656 120.742188 183.570312 122.105469 183.664062 C 122.640625 183.714844 123.175781 183.761719 123.710938 183.8125 C 126.195312 184.105469 128.386719 184.6875 130.332031 185.613281 C 132.523438 186.683594 134.324219 188.140625 135.640625 189.894531 Z M 113.34375 180.164062 C 113.929688 180.355469 114.5625 180.40625 115.195312 180.40625 C 116.460938 180.40625 117.675781 180.210938 118.894531 180.164062 C 119.527344 180.164062 120.109375 180.210938 120.742188 180.308594 C 121.375 180.40625 122.007812 180.453125 122.59375 180.453125 L 124.441406 180.503906 C 125.074219 180.503906 125.660156 180.550781 126.292969 180.601562 C 125.707031 180.453125 125.074219 180.40625 124.441406 180.355469 C 123.808594 180.308594 123.226562 180.308594 122.59375 180.257812 C 121.960938 180.210938 121.375 180.164062 120.742188 180.066406 C 120.109375 179.96875 119.476562 179.871094 118.894531 179.917969 C 117.628906 179.917969 116.410156 180.164062 115.195312 180.164062 C 114.5625 180.164062 113.976562 180.113281 113.394531 180.015625 C 112.808594 179.871094 112.222656 179.628906 111.738281 179.285156 C 112.175781 179.675781 112.757812 179.96875 113.34375 180.164062 Z M 116.265625 182.449219 C 116.652344 182.644531 117.042969 182.789062 117.433594 182.9375 C 118.210938 183.277344 118.941406 183.714844 119.671875 184.152344 C 120.402344 184.542969 121.179688 184.980469 121.910156 185.367188 C 122.300781 185.5625 122.691406 185.757812 123.078125 185.953125 C 123.46875 186.097656 123.859375 186.292969 124.296875 186.34375 C 123.90625 186.195312 123.519531 186 123.128906 185.808594 C 122.738281 185.613281 122.398438 185.417969 122.007812 185.175781 C 121.277344 184.738281 120.546875 184.347656 119.769531 183.910156 C 119.039062 183.519531 118.261719 183.082031 117.480469 182.742188 C 116.652344 182.449219 115.828125 182.253906 115.144531 181.769531 C 115.484375 182.058594 115.875 182.253906 116.265625 182.449219 Z M 125.707031 183.910156 C 126 183.910156 126.292969 183.859375 126.632812 183.8125 C 127.21875 183.714844 127.800781 183.617188 128.386719 183.617188 C 128.96875 183.617188 129.554688 183.714844 130.136719 183.8125 C 130.429688 183.859375 130.722656 183.910156 131.015625 184.007812 C 131.308594 184.054688 131.597656 184.152344 131.890625 184.199219 C 131.597656 184.054688 131.355469 183.957031 131.0625 183.859375 C 130.769531 183.761719 130.480469 183.664062 130.1875 183.617188 C 129.601562 183.472656 129.019531 183.375 128.386719 183.324219 C 127.753906 183.324219 127.167969 183.421875 126.585938 183.570312 C 126.292969 183.617188 126 183.714844 125.707031 183.761719 C 125.417969 183.8125 125.125 183.859375 124.832031 183.859375 C 125.074219 183.910156 125.417969 183.910156 125.707031 183.910156 Z M 155.988281 120.652344 C 156.132812 120.507812 156.375 120.507812 156.523438 120.652344 C 158.8125 122.84375 160.5625 125.808594 161.730469 129.167969 C 163.484375 134.375 163.191406 140.066406 160.855469 145.226562 C 160.367188 146.34375 159.785156 147.414062 159.25 148.339844 C 159.25 148.339844 159.25 148.386719 159.199219 148.386719 C 158.714844 148.972656 158.03125 149.117188 157.300781 148.777344 C 155.304688 147.851562 153.40625 143.472656 154.089844 140.117188 C 154.382812 138.703125 154.722656 137.246094 155.109375 135.6875 C 156.472656 130.335938 157.984375 124.300781 155.792969 121.1875 C 155.695312 121.042969 155.695312 120.847656 155.792969 120.699219 C 155.9375 120.699219 155.9375 120.699219 155.988281 120.652344 Z M 160.078125 144.933594 C 162.316406 139.96875 162.609375 134.472656 160.953125 129.460938 C 160.125 127.074219 159.003906 124.886719 157.546875 123.085938 C 158.324219 126.636719 157.105469 131.503906 155.988281 135.929688 C 155.597656 137.488281 155.207031 138.949219 154.964844 140.3125 C 154.332031 143.425781 156.230469 147.367188 157.691406 148.046875 C 158.03125 148.191406 158.324219 148.144531 158.566406 147.902344 C 159.054688 147.027344 159.589844 146.003906 160.078125 144.933594 Z M 156.765625 121.964844 C 157.933594 123.816406 158.664062 126.054688 158.859375 128.4375 C 159.054688 130.578125 158.8125 132.867188 158.179688 135.296875 C 158.03125 135.832031 157.886719 136.320312 157.738281 136.855469 C 157.351562 138.167969 156.960938 139.484375 156.863281 140.894531 C 156.765625 141.867188 156.816406 142.839844 156.914062 143.667969 C 157.011719 145.324219 157.203125 147.074219 158.179688 148.484375 L 158.421875 148.339844 C 157.496094 146.976562 157.351562 145.273438 157.203125 143.667969 C 157.15625 142.839844 157.105469 141.867188 157.15625 140.941406 C 157.253906 139.582031 157.644531 138.265625 158.03125 137 C 158.179688 136.515625 158.324219 135.980469 158.46875 135.445312 C 159.101562 133.011719 159.347656 130.675781 159.152344 128.535156 C 158.957031 126.101562 158.226562 123.816406 157.011719 121.917969 Z M 158.179688 148.144531 C 158.03125 147.5625 157.984375 146.929688 158.082031 146.296875 C 158.179688 145.710938 158.324219 145.078125 158.566406 144.542969 C 159.003906 143.425781 159.6875 142.355469 160.125 141.1875 C 160.367188 140.601562 160.515625 139.96875 160.660156 139.386719 C 160.757812 138.753906 160.953125 138.21875 161.097656 137.585938 C 161.292969 137 161.488281 136.417969 161.683594 135.832031 C 161.878906 135.25 162.023438 134.667969 162.121094 134.035156 C 161.976562 134.617188 161.78125 135.203125 161.585938 135.785156 L 160.953125 137.535156 C 160.757812 138.121094 160.5625 138.703125 160.417969 139.335938 C 160.269531 139.921875 160.125 140.503906 159.882812 141.089844 C 159.394531 142.207031 158.8125 143.277344 158.324219 144.496094 C 158.128906 145.078125 157.933594 145.710938 157.886719 146.34375 C 157.933594 146.929688 157.984375 147.5625 158.179688 148.144531 Z M 157.105469 144.007812 C 156.914062 143.179688 157.011719 142.304688 157.011719 141.476562 C 157.011719 140.601562 156.863281 139.773438 156.765625 138.898438 C 156.667969 138.070312 156.523438 137.195312 156.378906 136.371094 C 156.328125 135.929688 156.230469 135.542969 156.183594 135.105469 C 156.132812 134.667969 156.085938 134.277344 156.085938 133.839844 C 156.035156 134.277344 156.035156 134.714844 156.035156 135.105469 C 156.035156 135.542969 156.085938 135.980469 156.132812 136.371094 C 156.230469 137.195312 156.328125 138.070312 156.472656 138.898438 C 156.570312 139.726562 156.71875 140.601562 156.816406 141.429688 C 156.816406 141.867188 156.816406 142.257812 156.863281 142.695312 C 156.863281 143.179688 156.960938 143.621094 157.105469 144.007812 Z M 158.566406 134.277344 C 158.664062 133.984375 158.8125 133.742188 158.957031 133.5 C 159.101562 133.253906 159.25 133.011719 159.445312 132.71875 C 159.785156 132.234375 160.078125 131.699219 160.320312 131.113281 C 160.515625 130.53125 160.613281 129.945312 160.710938 129.3125 C 160.757812 129.023438 160.757812 128.730469 160.757812 128.390625 C 160.757812 128.097656 160.757812 127.804688 160.757812 127.464844 C 160.710938 127.757812 160.710938 128.046875 160.660156 128.339844 C 160.613281 128.632812 160.5625 128.925781 160.515625 129.214844 C 160.417969 129.800781 160.269531 130.382812 160.078125 130.917969 C 159.882812 131.453125 159.589844 131.988281 159.296875 132.523438 C 159.152344 132.769531 159.003906 133.058594 158.859375 133.351562 C 158.761719 133.691406 158.617188 133.984375 158.566406 134.277344 Z M 186.460938 144.203125 C 186.363281 144.347656 186.167969 144.398438 185.972656 144.347656 C 182.421875 142.988281 176.917969 145.90625 172.050781 148.484375 C 170.640625 149.214844 169.277344 149.945312 168.011719 150.578125 C 164.894531 152.039062 160.222656 151.210938 158.8125 149.554688 C 158.324219 148.921875 158.324219 148.242188 158.761719 147.65625 C 158.761719 147.65625 158.8125 147.609375 158.8125 147.609375 C 159.589844 146.878906 160.464844 146.101562 161.441406 145.324219 C 165.917969 141.820312 171.371094 140.164062 176.871094 140.652344 C 180.425781 140.941406 183.6875 142.011719 186.363281 143.667969 C 186.558594 143.765625 186.605469 144.007812 186.511719 144.203125 C 186.511719 144.15625 186.511719 144.15625 186.460938 144.203125 Z M 159.445312 148.097656 C 159.25 148.386719 159.25 148.679688 159.492188 148.972656 C 160.515625 150.238281 164.75 151.160156 167.671875 149.800781 C 168.9375 149.214844 170.300781 148.484375 171.710938 147.753906 C 175.75 145.613281 180.230469 143.277344 183.832031 143.179688 C 181.738281 142.207031 179.355469 141.625 176.824219 141.429688 C 171.566406 140.992188 166.308594 142.597656 161.976562 145.953125 C 161.050781 146.585938 160.175781 147.367188 159.445312 148.097656 Z M 185.195312 143.375 C 183.101562 142.644531 180.667969 142.5 178.234375 142.890625 C 176.09375 143.230469 173.851562 144.007812 171.664062 145.226562 C 171.175781 145.46875 170.738281 145.761719 170.25 146.003906 C 169.082031 146.683594 167.914062 147.367188 166.601562 147.804688 C 165.722656 148.097656 164.75 148.289062 163.921875 148.4375 C 162.316406 148.730469 160.613281 148.921875 159.054688 148.386719 L 158.957031 148.632812 C 160.5625 149.214844 162.316406 148.972656 163.972656 148.679688 C 164.796875 148.535156 165.773438 148.339844 166.695312 148.046875 C 168.011719 147.609375 169.226562 146.878906 170.398438 146.246094 C 170.835938 146.003906 171.320312 145.710938 171.808594 145.46875 C 174 144.300781 176.191406 143.523438 178.28125 143.179688 C 180.667969 142.792969 183.003906 142.988281 185.097656 143.667969 Z M 161.148438 148.242188 C 161.730469 148.046875 162.316406 147.753906 162.800781 147.414062 C 163.824219 146.683594 164.75 145.859375 165.722656 145.128906 C 166.210938 144.738281 166.746094 144.445312 167.28125 144.203125 C 167.867188 143.960938 168.402344 143.621094 168.886719 143.277344 L 170.445312 142.257812 C 170.980469 141.917969 171.46875 141.574219 172.050781 141.285156 C 171.46875 141.527344 170.933594 141.820312 170.398438 142.160156 C 169.859375 142.453125 169.324219 142.792969 168.789062 143.132812 C 168.253906 143.472656 167.71875 143.765625 167.183594 144.007812 C 166.601562 144.25 166.0625 144.59375 165.578125 144.933594 C 164.554688 145.664062 163.679688 146.539062 162.65625 147.269531 C 162.167969 147.609375 161.632812 147.949219 161.050781 148.144531 C 160.464844 148.386719 159.882812 148.484375 159.25 148.484375 C 159.929688 148.582031 160.5625 148.484375 161.148438 148.242188 Z M 164.847656 148.484375 C 165.285156 148.386719 165.675781 148.289062 166.113281 148.195312 C 166.941406 148.046875 167.769531 148 168.644531 147.902344 C 169.472656 147.804688 170.347656 147.707031 171.175781 147.609375 C 171.613281 147.5625 172.003906 147.511719 172.441406 147.414062 C 172.878906 147.316406 173.269531 147.21875 173.660156 147.074219 C 173.21875 147.171875 172.832031 147.269531 172.394531 147.316406 C 171.953125 147.367188 171.566406 147.414062 171.128906 147.414062 C 170.300781 147.464844 169.421875 147.5625 168.59375 147.65625 C 167.769531 147.753906 166.890625 147.804688 166.0625 148 C 165.238281 148.195312 164.457031 148.535156 163.582031 148.535156 C 163.972656 148.632812 164.410156 148.582031 164.847656 148.484375 Z M 173.464844 144.347656 C 173.707031 144.15625 173.902344 143.960938 174.144531 143.765625 C 174.582031 143.375 175.019531 142.9375 175.507812 142.597656 C 175.996094 142.257812 176.53125 142.011719 177.066406 141.769531 C 177.359375 141.625 177.601562 141.527344 177.894531 141.429688 C 178.1875 141.332031 178.429688 141.234375 178.722656 141.089844 C 178.429688 141.136719 178.136719 141.1875 177.84375 141.285156 C 177.550781 141.382812 177.261719 141.476562 176.96875 141.574219 C 176.382812 141.769531 175.847656 142.0625 175.3125 142.355469 C 174.777344 142.695312 174.386719 143.132812 173.949219 143.570312 C 173.753906 143.8125 173.5625 144.007812 173.316406 144.203125 C 173.121094 144.398438 172.878906 144.59375 172.636719 144.789062 C 172.929688 144.691406 173.21875 144.496094 173.464844 144.347656 Z M 158.859375 100.167969 C 158.957031 99.972656 159.152344 99.921875 159.347656 99.972656 C 162.074219 101.140625 164.652344 103.136719 166.792969 105.664062 C 170.105469 109.65625 171.761719 114.765625 171.46875 120.070312 C 171.417969 121.234375 171.273438 122.355469 171.128906 123.328125 C 171.128906 123.328125 171.128906 123.378906 171.128906 123.378906 C 170.882812 124.058594 170.347656 124.449219 169.617188 124.398438 C 167.574219 124.253906 164.410156 121.042969 163.875 117.878906 C 163.628906 116.566406 163.484375 115.152344 163.289062 113.644531 C 162.65625 108.488281 161.925781 102.695312 159.003906 100.652344 C 158.859375 100.554688 158.8125 100.363281 158.859375 100.214844 C 158.8125 100.214844 158.859375 100.214844 158.859375 100.167969 Z M 170.6875 120.117188 C 170.980469 114.960938 169.375 110.042969 166.210938 106.25 C 164.703125 104.449219 162.949219 102.890625 161.050781 101.773438 C 162.949219 104.59375 163.53125 109.316406 164.070312 113.597656 C 164.261719 115.105469 164.410156 116.515625 164.652344 117.828125 C 165.140625 120.796875 168.15625 123.570312 169.667969 123.71875 C 170.054688 123.765625 170.25 123.621094 170.347656 123.28125 C 170.542969 122.308594 170.640625 121.1875 170.6875 120.117188 Z M 160.027344 101.042969 C 161.683594 102.257812 163.09375 104.011719 164.070312 106.054688 C 164.945312 107.855469 165.527344 109.945312 165.773438 112.28125 C 165.820312 112.769531 165.871094 113.304688 165.917969 113.792969 C 166.015625 115.054688 166.113281 116.371094 166.503906 117.636719 C 166.746094 118.511719 167.136719 119.339844 167.476562 120.070312 C 168.15625 121.480469 168.886719 122.9375 170.203125 123.863281 L 170.347656 123.667969 C 169.082031 122.792969 168.351562 121.332031 167.71875 119.972656 C 167.378906 119.242188 166.988281 118.414062 166.746094 117.585938 C 166.40625 116.371094 166.257812 115.054688 166.160156 113.792969 C 166.113281 113.304688 166.0625 112.769531 166.015625 112.28125 C 165.773438 109.945312 165.140625 107.804688 164.261719 105.957031 C 163.242188 103.863281 161.828125 102.113281 160.125 100.847656 Z M 170.152344 123.523438 C 169.8125 123.035156 169.570312 122.5 169.472656 121.964844 C 169.324219 121.382812 169.277344 120.847656 169.324219 120.261719 C 169.324219 119.09375 169.570312 117.976562 169.570312 116.757812 C 169.570312 116.175781 169.519531 115.589844 169.421875 115.007812 C 169.324219 114.425781 169.277344 113.886719 169.226562 113.304688 C 169.179688 112.722656 169.179688 112.136719 169.132812 111.554688 C 169.082031 110.96875 169.035156 110.386719 168.9375 109.800781 C 169.035156 110.386719 169.035156 110.96875 169.035156 111.554688 L 169.082031 113.304688 C 169.082031 113.886719 169.132812 114.472656 169.226562 115.054688 C 169.324219 115.640625 169.375 116.175781 169.375 116.757812 C 169.324219 117.925781 169.179688 119.046875 169.179688 120.261719 C 169.179688 120.847656 169.277344 121.429688 169.421875 122.015625 C 169.472656 122.550781 169.765625 123.132812 170.152344 123.523438 Z M 167.769531 120.3125 C 167.28125 119.628906 167.136719 118.851562 166.84375 118.121094 C 166.550781 117.34375 166.113281 116.664062 165.773438 115.980469 C 165.382812 115.300781 164.992188 114.570312 164.554688 113.886719 C 164.359375 113.546875 164.164062 113.207031 163.972656 112.867188 C 163.777344 112.527344 163.628906 112.136719 163.484375 111.796875 C 163.582031 112.1875 163.726562 112.574219 163.875 112.964844 C 164.019531 113.351562 164.214844 113.695312 164.410156 114.035156 C 164.796875 114.765625 165.1875 115.445312 165.578125 116.175781 C 165.96875 116.855469 166.40625 117.585938 166.695312 118.269531 C 166.84375 118.609375 166.988281 118.996094 167.183594 119.386719 C 167.328125 119.679688 167.523438 120.019531 167.769531 120.3125 Z M 165.773438 111.261719 C 165.773438 110.96875 165.820312 110.675781 165.871094 110.433594 C 165.917969 110.140625 165.96875 109.898438 166.015625 109.605469 C 166.113281 109.070312 166.257812 108.488281 166.257812 107.902344 C 166.257812 107.320312 166.113281 106.734375 166.015625 106.199219 C 165.917969 105.910156 165.871094 105.664062 165.773438 105.375 C 165.675781 105.128906 165.578125 104.839844 165.429688 104.59375 C 165.480469 104.886719 165.578125 105.128906 165.625 105.421875 C 165.675781 105.714844 165.773438 105.957031 165.820312 106.25 C 165.917969 106.785156 166.015625 107.367188 166.015625 107.902344 C 166.015625 108.4375 165.917969 109.023438 165.871094 109.558594 C 165.820312 109.851562 165.773438 110.140625 165.773438 110.386719 C 165.722656 110.675781 165.722656 110.96875 165.773438 111.261719 Z M 193.617188 110.484375 C 193.570312 110.628906 193.421875 110.773438 193.226562 110.773438 C 189.675781 110.773438 185.78125 115.203125 182.421875 119.144531 C 181.445312 120.3125 180.472656 121.382812 179.546875 122.355469 C 177.308594 124.691406 172.929688 125.566406 171.128906 124.546875 C 170.496094 124.15625 170.25 123.570312 170.445312 122.890625 C 170.445312 122.890625 170.445312 122.84375 170.445312 122.84375 C 170.882812 121.917969 171.371094 120.945312 172.003906 119.921875 C 174.730469 115.347656 178.964844 112.039062 183.929688 110.578125 C 187.144531 109.65625 190.402344 109.460938 193.324219 109.996094 C 193.519531 110.042969 193.664062 110.238281 193.664062 110.433594 C 193.664062 110.433594 193.617188 110.484375 193.617188 110.484375 Z M 171.222656 123.085938 C 171.128906 123.425781 171.222656 123.667969 171.566406 123.816406 C 172.878906 124.59375 176.917969 123.960938 179.011719 121.769531 C 179.9375 120.796875 180.863281 119.726562 181.835938 118.609375 C 184.660156 115.347656 187.777344 111.796875 190.941406 110.484375 C 188.75 110.386719 186.460938 110.628906 184.171875 111.308594 C 179.402344 112.671875 175.3125 115.882812 172.683594 120.3125 C 172.101562 121.234375 171.613281 122.210938 171.222656 123.085938 Z M 192.207031 110.191406 C 190.113281 110.289062 187.921875 110.921875 185.925781 112.089844 C 184.171875 113.109375 182.46875 114.570312 180.960938 116.371094 C 180.621094 116.757812 180.328125 117.148438 179.988281 117.539062 C 179.207031 118.511719 178.378906 119.53125 177.40625 120.359375 C 176.726562 120.945312 175.945312 121.429688 175.265625 121.820312 C 173.949219 122.597656 172.539062 123.378906 170.980469 123.425781 L 170.980469 123.667969 C 172.585938 123.621094 174.046875 122.84375 175.410156 122.015625 C 176.09375 121.625 176.871094 121.140625 177.601562 120.554688 C 178.625 119.726562 179.402344 118.707031 180.230469 117.683594 C 180.523438 117.292969 180.863281 116.90625 181.203125 116.515625 C 182.710938 114.765625 184.367188 113.304688 186.121094 112.332031 C 188.066406 111.210938 190.210938 110.53125 192.253906 110.433594 Z M 172.78125 122.648438 C 173.21875 122.257812 173.609375 121.820312 173.949219 121.332031 C 174.632812 120.359375 175.117188 119.289062 175.75 118.316406 C 176.042969 117.828125 176.433594 117.390625 176.824219 116.953125 C 177.210938 116.515625 177.601562 116.078125 177.941406 115.589844 L 178.964844 114.179688 C 179.304688 113.695312 179.644531 113.257812 180.035156 112.816406 C 179.597656 113.207031 179.257812 113.695312 178.867188 114.132812 C 178.527344 114.570312 178.136719 115.054688 177.796875 115.496094 C 177.457031 115.933594 177.066406 116.417969 176.675781 116.808594 C 176.285156 117.246094 175.898438 117.683594 175.558594 118.171875 C 174.875 119.144531 174.4375 120.214844 173.804688 121.1875 C 173.511719 121.675781 173.121094 122.113281 172.734375 122.5 C 172.296875 122.890625 171.808594 123.230469 171.273438 123.425781 C 171.808594 123.328125 172.34375 123.035156 172.78125 122.648438 Z M 176.09375 121.625 C 176.433594 121.429688 176.773438 121.1875 177.113281 120.945312 C 177.796875 120.554688 178.527344 120.214844 179.257812 119.824219 C 179.988281 119.4375 180.667969 119.09375 181.398438 118.707031 C 181.738281 118.511719 182.128906 118.316406 182.46875 118.121094 C 182.808594 117.878906 183.152344 117.683594 183.441406 117.390625 C 183.101562 117.636719 182.761719 117.828125 182.421875 118.023438 C 182.078125 118.21875 181.691406 118.367188 181.351562 118.558594 C 180.621094 118.902344 179.890625 119.242188 179.207031 119.628906 C 178.476562 120.019531 177.746094 120.359375 177.113281 120.796875 C 176.480469 121.285156 175.847656 121.820312 175.117188 122.113281 C 175.363281 122.015625 175.75 121.820312 176.09375 121.625 Z M 182.226562 115.007812 C 182.371094 114.765625 182.519531 114.519531 182.617188 114.230469 C 182.859375 113.742188 183.101562 113.207031 183.394531 112.769531 C 183.734375 112.332031 184.125 111.894531 184.464844 111.503906 C 184.660156 111.308594 184.855469 111.113281 185.050781 110.921875 C 185.246094 110.726562 185.488281 110.53125 185.683594 110.335938 C 185.4375 110.484375 185.195312 110.628906 184.953125 110.824219 C 184.707031 111.019531 184.515625 111.164062 184.269531 111.359375 C 183.832031 111.746094 183.441406 112.136719 183.101562 112.625 C 182.761719 113.109375 182.519531 113.644531 182.324219 114.179688 C 182.226562 114.425781 182.128906 114.714844 181.984375 114.960938 C 181.886719 115.203125 181.738281 115.445312 181.59375 115.6875 C 181.933594 115.496094 182.078125 115.25 182.226562 115.007812 Z M 169.277344 73.015625 C 169.421875 72.867188 169.667969 72.867188 169.8125 72.964844 C 172.148438 74.765625 174.195312 77.34375 175.605469 80.363281 C 177.796875 85.035156 178.136719 90.386719 176.53125 95.496094 C 176.191406 96.566406 175.800781 97.636719 175.363281 98.5625 C 175.363281 98.5625 175.363281 98.609375 175.3125 98.609375 C 174.925781 99.242188 174.292969 99.4375 173.609375 99.195312 C 171.664062 98.5625 169.421875 94.667969 169.667969 91.457031 C 169.765625 90.144531 169.957031 88.683594 170.152344 87.175781 C 170.835938 82.015625 171.613281 76.226562 169.226562 73.550781 C 169.132812 73.402344 169.082031 73.210938 169.179688 73.113281 C 169.277344 73.0625 169.277344 73.0625 169.277344 73.015625 Z M 175.75 95.253906 C 177.308594 90.335938 177.015625 85.179688 174.875 80.703125 C 173.851562 78.5625 172.539062 76.664062 171.03125 75.105469 C 172.148438 78.320312 171.515625 83.039062 170.980469 87.273438 C 170.785156 88.78125 170.589844 90.191406 170.492188 91.503906 C 170.25 94.523438 172.441406 97.976562 173.902344 98.464844 C 174.242188 98.5625 174.484375 98.511719 174.679688 98.21875 C 175.070312 97.34375 175.460938 96.324219 175.75 95.253906 Z M 170.203125 74.132812 C 171.515625 75.738281 172.441406 77.734375 172.878906 79.972656 C 173.269531 81.96875 173.316406 84.109375 172.976562 86.445312 C 172.929688 86.929688 172.832031 87.417969 172.734375 87.90625 C 172.539062 89.167969 172.296875 90.433594 172.34375 91.75 C 172.394531 92.671875 172.539062 93.550781 172.683594 94.328125 C 172.976562 95.882812 173.316406 97.492188 174.386719 98.707031 L 174.582031 98.5625 C 173.5625 97.394531 173.21875 95.835938 172.929688 94.277344 C 172.78125 93.5 172.636719 92.625 172.585938 91.699219 C 172.539062 90.433594 172.78125 89.121094 172.976562 87.90625 C 173.074219 87.417969 173.171875 86.929688 173.21875 86.394531 C 173.5625 84.0625 173.511719 81.871094 173.121094 79.828125 C 172.683594 77.539062 171.710938 75.496094 170.398438 73.890625 Z M 174.339844 98.464844 C 174.144531 97.929688 174.046875 97.34375 174.046875 96.761719 C 174.046875 96.175781 174.144531 95.59375 174.339844 95.058594 C 174.632812 93.9375 175.117188 92.867188 175.460938 91.75 C 175.605469 91.164062 175.703125 90.582031 175.75 89.996094 C 175.800781 89.414062 175.898438 88.828125 175.996094 88.292969 C 176.09375 87.710938 176.238281 87.175781 176.335938 86.589844 C 176.433594 86.007812 176.53125 85.421875 176.578125 84.839844 C 176.53125 85.421875 176.382812 86.007812 176.238281 86.542969 L 175.847656 88.246094 C 175.703125 88.828125 175.605469 89.414062 175.558594 89.996094 C 175.507812 90.582031 175.410156 91.117188 175.265625 91.699219 C 174.925781 92.820312 174.484375 93.890625 174.195312 95.007812 C 174.046875 95.59375 174 96.175781 174 96.761719 C 173.949219 97.34375 174.097656 97.929688 174.339844 98.464844 Z M 172.878906 94.765625 C 172.585938 93.988281 172.636719 93.207031 172.539062 92.382812 C 172.441406 91.554688 172.199219 90.777344 172.003906 89.996094 C 171.808594 89.21875 171.613281 88.441406 171.371094 87.660156 C 171.273438 87.273438 171.128906 86.882812 171.078125 86.492188 C 170.980469 86.105469 170.882812 85.714844 170.882812 85.324219 C 170.882812 85.714844 170.933594 86.152344 170.980469 86.542969 C 171.03125 86.929688 171.128906 87.320312 171.222656 87.710938 C 171.417969 88.488281 171.613281 89.265625 171.808594 90.046875 C 172.003906 90.824219 172.246094 91.601562 172.394531 92.382812 C 172.441406 92.769531 172.488281 93.160156 172.585938 93.597656 C 172.585938 93.988281 172.683594 94.375 172.878906 94.765625 Z M 173.21875 85.472656 C 173.316406 85.179688 173.414062 84.9375 173.511719 84.691406 C 173.609375 84.449219 173.753906 84.207031 173.851562 83.914062 C 174.097656 83.429688 174.339844 82.894531 174.484375 82.308594 C 174.632812 81.726562 174.632812 81.191406 174.632812 80.605469 C 174.632812 80.3125 174.632812 80.023438 174.582031 79.730469 C 174.535156 79.4375 174.535156 79.144531 174.484375 78.902344 C 174.484375 79.195312 174.484375 79.488281 174.484375 79.730469 C 174.484375 80.023438 174.484375 80.3125 174.4375 80.558594 C 174.386719 81.09375 174.339844 81.675781 174.195312 82.210938 C 174.046875 82.746094 173.851562 83.234375 173.609375 83.769531 C 173.511719 84.011719 173.414062 84.304688 173.316406 84.546875 C 173.316406 84.9375 173.21875 85.179688 173.21875 85.472656 Z M 98.789062 166.246094 C 98.933594 166.246094 99.03125 166.34375 99.082031 166.488281 C 99.273438 168.582031 98.886719 170.867188 98.007812 173.058594 C 96.648438 176.464844 94.019531 179.1875 90.5625 180.796875 C 89.832031 181.136719 89.101562 181.425781 88.417969 181.671875 C 88.417969 181.671875 88.371094 181.671875 88.371094 181.671875 C 87.882812 181.769531 87.445312 181.523438 87.25 181.085938 C 86.667969 179.773438 87.59375 176.757812 89.394531 175.34375 C 90.125 174.761719 90.949219 174.175781 91.828125 173.542969 C 94.796875 171.453125 98.203125 169.066406 98.496094 166.539062 C 98.496094 166.390625 98.59375 166.34375 98.738281 166.292969 C 98.738281 166.246094 98.789062 166.246094 98.789062 166.246094 Z M 90.316406 180.257812 C 93.628906 178.75 96.160156 176.074219 97.472656 172.816406 C 98.105469 171.257812 98.449219 169.652344 98.546875 168.144531 C 97.425781 170.285156 94.652344 172.183594 92.167969 173.933594 C 91.292969 174.566406 90.464844 175.152344 89.734375 175.6875 C 88.03125 177 87.300781 179.773438 87.738281 180.796875 C 87.835938 181.039062 87.980469 181.136719 88.226562 181.085938 C 88.90625 180.84375 89.589844 180.550781 90.316406 180.257812 Z M 98.640625 167.21875 C 98.449219 168.679688 97.816406 170.089844 96.890625 171.402344 C 96.0625 172.570312 94.941406 173.640625 93.578125 174.566406 C 93.289062 174.761719 92.996094 174.957031 92.703125 175.152344 C 91.925781 175.636719 91.144531 176.125 90.511719 176.804688 C 90.074219 177.242188 89.636719 177.777344 89.296875 178.214844 C 88.613281 179.09375 87.980469 180.066406 87.835938 181.183594 L 88.03125 181.183594 C 88.175781 180.113281 88.808594 179.140625 89.441406 178.3125 C 89.78125 177.875 90.171875 177.339844 90.609375 176.902344 C 91.242188 176.269531 92.023438 175.78125 92.800781 175.296875 C 93.09375 175.101562 93.386719 174.90625 93.675781 174.710938 C 95.039062 173.789062 96.160156 172.667969 97.035156 171.5 C 98.007812 170.1875 98.640625 168.679688 98.835938 167.21875 Z M 87.980469 181.039062 C 88.175781 180.648438 88.417969 180.355469 88.710938 180.066406 C 89.003906 179.773438 89.34375 179.578125 89.734375 179.382812 C 90.464844 178.996094 91.242188 178.75 91.972656 178.363281 C 92.363281 178.167969 92.703125 177.925781 92.996094 177.679688 C 93.289062 177.4375 93.628906 177.195312 94.019531 177 C 94.359375 176.804688 94.699219 176.5625 95.089844 176.367188 C 95.429688 176.125 95.769531 175.929688 96.109375 175.636719 C 95.769531 175.878906 95.429688 176.074219 95.039062 176.269531 L 93.96875 176.855469 C 93.628906 177.046875 93.238281 177.292969 92.945312 177.535156 C 92.605469 177.777344 92.265625 178.019531 91.925781 178.167969 C 91.195312 178.558594 90.414062 178.800781 89.683594 179.1875 C 89.34375 179.382812 88.957031 179.628906 88.664062 179.917969 C 88.371094 180.308594 88.128906 180.648438 87.980469 181.039062 Z M 89.199219 178.507812 C 89.441406 177.972656 89.878906 177.632812 90.269531 177.195312 C 90.660156 176.757812 90.949219 176.269531 91.242188 175.78125 C 91.535156 175.296875 91.875 174.808594 92.167969 174.324219 C 92.3125 174.078125 92.460938 173.835938 92.605469 173.59375 C 92.753906 173.351562 92.945312 173.105469 93.140625 172.914062 C 92.945312 173.105469 92.753906 173.300781 92.558594 173.542969 C 92.363281 173.789062 92.21875 173.984375 92.070312 174.226562 C 91.730469 174.710938 91.4375 175.152344 91.144531 175.636719 C 90.855469 176.125 90.5625 176.609375 90.222656 177.046875 C 90.027344 177.292969 89.878906 177.484375 89.683594 177.730469 C 89.441406 177.972656 89.296875 178.214844 89.199219 178.507812 Z M 94.210938 174.226562 C 94.40625 174.128906 94.554688 174.078125 94.75 173.984375 C 94.941406 173.933594 95.136719 173.886719 95.332031 173.789062 C 95.722656 173.691406 96.109375 173.542969 96.453125 173.351562 C 96.792969 173.15625 97.132812 172.914062 97.425781 172.621094 C 97.570312 172.472656 97.71875 172.328125 97.863281 172.183594 C 98.007812 172.035156 98.105469 171.890625 98.253906 171.695312 C 98.105469 171.839844 97.960938 171.988281 97.816406 172.085938 C 97.667969 172.230469 97.523438 172.328125 97.375 172.472656 C 97.085938 172.71875 96.742188 172.960938 96.402344 173.15625 C 96.0625 173.351562 95.671875 173.449219 95.332031 173.59375 C 95.136719 173.640625 94.941406 173.738281 94.75 173.835938 C 94.503906 173.984375 94.359375 174.078125 94.210938 174.226562 Z M 103.949219 191.304688 C 103.851562 191.304688 103.707031 191.257812 103.65625 191.160156 C 102.441406 188.921875 98.398438 187.996094 94.84375 187.21875 C 93.824219 186.976562 92.800781 186.730469 91.875 186.488281 C 89.683594 185.855469 87.640625 183.421875 87.691406 181.960938 C 87.691406 181.425781 87.980469 181.085938 88.515625 180.988281 C 88.515625 180.988281 88.566406 180.988281 88.566406 180.988281 C 89.296875 180.941406 90.074219 180.941406 90.902344 180.988281 C 94.652344 181.183594 98.15625 182.691406 100.6875 185.320312 C 102.34375 187.023438 103.558594 188.96875 104.144531 190.964844 C 104.191406 191.109375 104.09375 191.257812 103.996094 191.304688 C 103.996094 191.304688 103.949219 191.304688 103.949219 191.304688 Z M 88.613281 181.574219 C 88.371094 181.621094 88.273438 181.769531 88.273438 182.011719 C 88.226562 183.082031 89.976562 185.417969 92.023438 185.953125 C 92.945312 186.195312 93.921875 186.441406 94.941406 186.683594 C 97.914062 187.363281 101.175781 188.09375 103.023438 189.652344 C 102.390625 188.238281 101.417969 186.925781 100.25 185.710938 C 97.816406 183.179688 94.457031 181.71875 90.804688 181.523438 C 90.074219 181.523438 89.296875 181.523438 88.613281 181.574219 Z M 103.65625 190.332031 C 102.925781 189.066406 101.757812 187.949219 100.394531 187.070312 C 99.179688 186.292969 97.71875 185.757812 96.0625 185.367188 C 95.722656 185.273438 95.382812 185.222656 94.992188 185.175781 C 94.117188 185.027344 93.191406 184.832031 92.363281 184.492188 C 91.777344 184.25 91.242188 183.910156 90.757812 183.664062 C 89.832031 183.128906 88.859375 182.5 88.324219 181.523438 L 88.175781 181.621094 C 88.710938 182.59375 89.683594 183.226562 90.660156 183.8125 C 91.144531 184.105469 91.730469 184.445312 92.3125 184.6875 C 93.140625 185.027344 94.066406 185.222656 94.941406 185.367188 C 95.285156 185.417969 95.625 185.515625 95.964844 185.5625 C 97.570312 185.902344 99.03125 186.488281 100.25 187.21875 C 101.613281 188.046875 102.730469 189.164062 103.460938 190.429688 Z M 89.394531 182.402344 C 89.78125 182.546875 90.171875 182.644531 90.609375 182.691406 C 91.4375 182.789062 92.265625 182.742188 93.09375 182.789062 C 93.484375 182.839844 93.921875 182.886719 94.308594 182.984375 C 94.699219 183.082031 95.136719 183.179688 95.527344 183.226562 L 96.742188 183.375 C 97.132812 183.421875 97.570312 183.472656 97.960938 183.570312 C 97.570312 183.421875 97.183594 183.375 96.742188 183.277344 C 96.355469 183.179688 95.917969 183.128906 95.527344 183.082031 C 95.136719 183.035156 94.699219 182.9375 94.308594 182.839844 C 93.921875 182.742188 93.484375 182.644531 93.09375 182.59375 C 92.265625 182.5 91.4375 182.59375 90.609375 182.5 C 90.222656 182.449219 89.78125 182.402344 89.394531 182.253906 C 89.003906 182.109375 88.664062 181.914062 88.324219 181.671875 C 88.664062 182.011719 89.003906 182.253906 89.394531 182.402344 Z M 91.144531 184.105469 C 91.390625 184.25 91.632812 184.394531 91.875 184.492188 C 92.363281 184.785156 92.800781 185.125 93.289062 185.464844 C 93.773438 185.808594 94.210938 186.097656 94.699219 186.4375 C 94.941406 186.585938 95.1875 186.730469 95.429688 186.878906 C 95.671875 187.023438 95.917969 187.121094 96.207031 187.21875 C 95.964844 187.070312 95.722656 186.925781 95.476562 186.78125 C 95.234375 186.632812 95.039062 186.4375 94.796875 186.292969 C 94.359375 185.953125 93.871094 185.613281 93.433594 185.320312 C 92.945312 184.980469 92.507812 184.640625 91.972656 184.394531 C 91.4375 184.152344 90.902344 183.957031 90.511719 183.570312 C 90.660156 183.8125 90.902344 183.957031 91.144531 184.105469 Z M 97.328125 185.757812 C 97.523438 185.757812 97.71875 185.757812 97.914062 185.757812 C 98.300781 185.757812 98.691406 185.710938 99.082031 185.757812 C 99.46875 185.808594 99.859375 185.902344 100.25 186 C 100.445312 186.050781 100.636719 186.097656 100.832031 186.195312 C 101.027344 186.246094 101.222656 186.34375 101.417969 186.390625 C 101.222656 186.292969 101.078125 186.195312 100.882812 186.097656 C 100.6875 186 100.492188 185.953125 100.347656 185.855469 C 99.957031 185.710938 99.566406 185.613281 99.179688 185.5625 C 98.789062 185.515625 98.351562 185.5625 97.960938 185.613281 C 97.765625 185.613281 97.570312 185.660156 97.375 185.660156 C 97.183594 185.660156 96.988281 185.660156 96.792969 185.660156 C 96.890625 185.710938 97.132812 185.710938 97.328125 185.757812 Z M 174.242188 99.195312 C 174.242188 99.195312 174.242188 99.242188 174.242188 99.242188 C 174.097656 102.695312 173.804688 106.101562 173.414062 109.507812 C 172.539062 116.320312 170.980469 123.035156 168.59375 129.507812 C 167.425781 132.71875 166.015625 135.882812 164.410156 138.898438 C 163.628906 140.40625 162.753906 141.917969 161.878906 143.375 C 160.953125 144.835938 160.027344 146.246094 159.003906 147.65625 C 154.964844 153.207031 150.144531 158.167969 144.792969 162.402344 C 139.386719 166.636719 133.449219 170.136719 127.167969 172.960938 C 124.054688 174.371094 120.839844 175.636719 117.578125 176.660156 C 114.316406 177.730469 111.007812 178.605469 107.648438 179.335938 C 100.929688 180.746094 94.019531 181.378906 87.152344 181.28125 C 83.699219 181.234375 80.289062 181.039062 76.832031 180.648438 C 75.128906 180.453125 73.425781 180.210938 71.722656 179.917969 C 70.019531 179.628906 68.316406 179.285156 66.660156 178.847656 C 68.316406 179.285156 70.019531 179.675781 71.722656 179.96875 C 73.425781 180.257812 75.128906 180.550781 76.832031 180.746094 C 80.242188 181.183594 83.699219 181.425781 87.152344 181.476562 C 94.066406 181.621094 100.980469 181.039062 107.746094 179.722656 C 111.152344 179.042969 114.464844 178.214844 117.773438 177.195312 C 121.085938 176.171875 124.296875 174.957031 127.507812 173.59375 C 133.839844 170.820312 139.875 167.269531 145.328125 163.035156 C 148.050781 160.894531 150.632812 158.605469 153.066406 156.125 C 155.453125 153.644531 157.691406 150.96875 159.734375 148.144531 C 160.757812 146.734375 161.683594 145.273438 162.609375 143.8125 C 163.484375 142.355469 164.359375 140.847656 165.1875 139.289062 C 166.792969 136.222656 168.207031 133.058594 169.375 129.800781 C 171.710938 123.28125 173.171875 116.46875 173.949219 109.65625 C 174.339844 106.25 174.535156 102.792969 174.582031 99.339844 C 174.582031 99.339844 174.582031 99.289062 174.582031 99.289062 C 174.4375 99.195312 174.339844 99.195312 174.242188 99.195312 Z M 174.242188 99.195312 " fill-opacity="1" fill-rule="nonzero"/></g></g></g><g fill="rgb(0%, 0%, 0%)" fill-opacity="1"><g transform="translate(89.009763, 207.187482)"><g><path d="M 51.042969 31.773438 C 71.539062 31.773438 78.304688 11.683594 78.304688 -8.199219 C 78.304688 -20.703125 75.84375 -29.722656 73.386719 -39.5625 C 81.378906 -39.5625 87.734375 -33.617188 93.472656 -28.082031 C 99.007812 -22.546875 106.796875 -16.808594 115.613281 -16.808594 C 119.507812 -16.808594 127.089844 -19.269531 127.089844 -23.164062 C 127.089844 -25.417969 125.246094 -26.648438 123.605469 -26.648438 C 122.582031 -26.648438 121.351562 -26.238281 120.121094 -25.214844 C 118.6875 -24.1875 117.253906 -23.777344 115.613281 -23.777344 C 109.667969 -23.777344 101.671875 -30.542969 95.320312 -35.667969 C 87.734375 -41.40625 79.328125 -47.148438 69.695312 -47.148438 C 65.800781 -47.148438 64.367188 -45.507812 64.367188 -43.867188 C 66.824219 -36.898438 71.128906 -22.34375 71.128906 -8.199219 C 71.128906 8.199219 66.003906 24.804688 51.042969 24.804688 C 38.539062 24.804688 31.976562 13.527344 31.976562 3.074219 C 31.976562 -4.917969 35.050781 -16.605469 35.050781 -25.625 C 35.050781 -36.488281 33.003906 -52.476562 20.910156 -52.476562 C 11.683594 -52.476562 5.328125 -38.332031 -2.871094 -25.007812 C -3.28125 -24.394531 -3.484375 -23.777344 -3.484375 -23.164062 C -3.484375 -21.523438 -1.84375 -19.679688 0 -19.679688 C 1.230469 -19.679688 2.253906 -20.292969 3.074219 -21.320312 C 8.609375 -28.902344 17.015625 -45.507812 20.910156 -45.507812 C 23.367188 -45.507812 25.214844 -43.660156 26.238281 -39.972656 C 27.261719 -36.28125 27.878906 -31.566406 27.878906 -25.625 C 27.878906 -17.015625 24.804688 -6.558594 24.804688 3.074219 C 24.804688 19.472656 35.257812 31.773438 51.042969 31.773438 Z M 51.042969 31.773438 "/></g></g></g><g fill="rgb(0%, 0%, 0%)" fill-opacity="1"><g transform="translate(212.611749, 207.187482)"><g><path d="M 41.40625 0.203125 C 56.371094 0.203125 68.261719 -9.429688 76.460938 -20.910156 C 77.074219 -21.523438 77.28125 -22.34375 77.28125 -23.164062 C 77.28125 -24.804688 75.84375 -26.648438 73.589844 -26.648438 C 72.15625 -26.648438 71.335938 -25.828125 70.71875 -25.007812 C 63.75 -15.375 53.5 -6.765625 41.40625 -6.765625 C 24.597656 -6.765625 16.808594 -22.34375 16.808594 -41.203125 C 16.808594 -53.089844 24.597656 -66.210938 36.488281 -66.210938 C 43.867188 -66.210938 48.171875 -60.472656 53.5 -54.117188 C 54.117188 -53.089844 54.9375 -52.679688 56.167969 -52.679688 C 57.804688 -52.679688 60.0625 -54.117188 60.0625 -56.371094 C 60.0625 -56.984375 59.855469 -57.601562 59.242188 -58.625 C 54.320312 -67.03125 47.148438 -73.179688 36.488281 -73.179688 C 22.136719 -73.179688 11.273438 -59.855469 9.632812 -44.277344 C 7.585938 -41.203125 -2.253906 -26.648438 -2.871094 -24.804688 C -3.28125 -24.1875 -3.484375 -23.574219 -3.484375 -22.753906 C -3.484375 -21.730469 -2.871094 -20.910156 -1.84375 -20.292969 C -0.203125 -18.859375 2.050781 -19.882812 2.871094 -20.910156 C 4.714844 -23.367188 9.019531 -30.339844 10.453125 -33.207031 C 12.710938 -15.167969 22.34375 0.203125 41.40625 0.203125 Z M 41.40625 0.203125 "/></g></g></g></svg>